{"glyphs":{"0":{"ha":683,"x_min":0,"x_max":642,"o":"m 642 69 l 533 69 l 533 1111 l 642 1111 l 642 69 m 492 69 l 450 69 l 450 1111 l 492 1111 l 492 69 m 408 69 l 367 69 l 367 1111 l 408 1111 l 408 69 m 258 69 l 217 69 l 217 1111 l 258 1111 l 258 69 m 108 69 l 0 69 l 0 1111 l 108 1111 l 108 69 m 568 -199 q 549 -255 568 -235 q 501 -275 529 -275 q 458 -261 482 -275 l 458 -226 q 501 -244 476 -244 q 532 -233 519 -244 q 544 -196 544 -221 q 533 -162 544 -174 q 506 -151 522 -151 l 486 -151 l 486 -125 l 531 -61 l 458 -61 l 458 -29 l 561 -29 l 561 -64 l 519 -125 q 568 -199 568 -125 m 211 -275 l 186 -275 l 186 -71 l 142 -125 l 142 -82 l 183 -32 l 211 -32 l 211 -275 z "},"1":{"ha":683,"x_min":0,"x_max":575,"o":"m 575 69 l 467 69 l 467 1111 l 575 1111 l 575 69 m 425 69 l 383 69 l 383 1111 l 425 1111 l 425 69 m 275 69 l 233 69 l 233 1111 l 275 1111 l 275 69 m 192 69 l 150 69 l 150 1111 l 192 1111 l 192 69 m 108 69 l 0 69 l 0 1111 l 108 1111 l 108 69 m 568 -222 l 547 -222 l 547 -275 l 522 -275 l 522 -222 l 458 -222 l 458 -186 l 508 -32 l 533 -32 l 482 -192 l 522 -192 l 522 -140 l 547 -140 l 547 -192 l 568 -192 l 568 -222 m 204 -275 l 181 -275 l 181 -71 l 136 -125 l 136 -82 l 178 -32 l 204 -32 l 204 -275 z "},"2":{"ha":683,"x_min":0,"x_max":642,"o":"m 642 69 l 533 69 l 533 1111 l 642 1111 l 642 69 m 492 69 l 450 69 l 450 1111 l 492 1111 l 492 69 m 342 69 l 300 69 l 300 1111 l 342 1111 l 342 69 m 258 69 l 217 69 l 217 1111 l 258 1111 l 258 69 m 108 69 l 0 69 l 0 1111 l 108 1111 l 108 69 m 554 -186 q 532 -251 554 -228 q 465 -275 510 -275 l 458 -275 l 458 -244 l 472 -244 q 513 -231 496 -244 q 531 -185 531 -217 q 517 -147 531 -157 q 488 -139 503 -137 l 458 -143 l 464 -29 l 550 -29 l 550 -61 l 485 -61 l 482 -108 l 488 -108 q 535 -127 517 -108 q 554 -186 554 -146 m 206 -275 l 183 -275 l 183 -71 l 138 -125 l 138 -82 l 179 -32 l 206 -32 l 206 -275 z "},"3":{"ha":683,"x_min":0,"x_max":642,"o":"m 642 69 l 533 69 l 533 1111 l 642 1111 l 642 69 m 492 69 l 450 69 l 450 1111 l 492 1111 l 492 69 m 342 69 l 300 69 l 300 1111 l 342 1111 l 342 69 m 192 69 l 150 69 l 150 1111 l 192 1111 l 192 69 m 108 69 l 0 69 l 0 1111 l 108 1111 l 108 69 m 568 -196 q 553 -254 568 -233 q 513 -275 538 -275 q 457 -193 457 -275 q 461 -144 457 -165 q 478 -101 465 -122 l 521 -29 l 551 -29 q 535 -56 540 -47 q 507 -101 514 -89 l 494 -122 q 517 -117 504 -117 q 553 -140 539 -117 q 568 -196 568 -162 m 211 -275 l 186 -275 l 186 -71 l 142 -125 l 142 -82 l 183 -32 l 211 -32 l 211 -275 m 544 -196 q 513 -147 544 -147 q 493 -154 500 -147 q 479 -194 479 -167 q 513 -244 479 -244 q 544 -196 544 -244 z "},"4":{"ha":683,"x_min":0,"x_max":575,"o":"m 575 69 l 467 69 l 467 1111 l 575 1111 l 575 69 m 358 69 l 317 69 l 317 1111 l 358 1111 l 358 69 m 275 69 l 233 69 l 233 1111 l 275 1111 l 275 69 m 192 69 l 150 69 l 150 1111 l 192 1111 l 192 69 m 108 69 l 0 69 l 0 1111 l 108 1111 l 108 69 m 558 -74 q 551 -93 556 -83 q 540 -108 546 -103 q 518 -151 528 -131 q 500 -236 500 -190 l 500 -275 l 475 -275 l 475 -236 q 485 -167 475 -197 q 517 -101 496 -136 l 526 -87 q 531 -76 528 -82 q 533 -64 533 -71 l 451 -64 l 451 -32 l 563 -32 q 558 -74 563 -61 m 211 -275 l 186 -275 l 186 -71 l 142 -125 l 142 -82 l 183 -32 l 211 -32 l 211 -275 z "},"5":{"ha":683,"x_min":0,"x_max":642,"o":"m 642 69 l 533 69 l 533 1111 l 642 1111 l 642 69 m 425 69 l 383 69 l 383 1111 l 425 1111 l 425 69 m 342 69 l 300 69 l 300 1111 l 342 1111 l 342 69 m 258 69 l 217 69 l 217 1111 l 258 1111 l 258 69 m 108 69 l 0 69 l 0 1111 l 108 1111 l 108 69 m 569 -208 q 553 -258 569 -242 q 513 -275 538 -275 q 472 -260 488 -275 q 457 -208 457 -244 q 492 -136 457 -161 q 478 -121 482 -126 q 464 -81 464 -103 q 478 -38 464 -51 q 513 -25 492 -25 q 549 -39 533 -25 q 564 -81 564 -53 q 556 -114 564 -100 q 535 -136 553 -118 q 560 -165 551 -149 q 569 -208 569 -182 m 207 -275 l 183 -275 l 183 -71 l 139 -125 l 139 -82 l 181 -32 l 207 -32 l 207 -275 m 540 -82 q 532 -62 540 -68 q 513 -57 524 -57 q 488 -82 488 -57 q 495 -106 488 -96 q 513 -119 503 -115 q 532 -106 524 -115 q 540 -82 540 -96 m 547 -206 q 536 -175 547 -189 q 513 -154 531 -167 q 490 -174 496 -167 q 481 -206 481 -186 q 496 -239 481 -229 q 513 -244 504 -244 q 538 -235 528 -244 q 547 -206 547 -226 z "},"6":{"ha":683,"x_min":0,"x_max":642,"o":"m 642 69 l 533 69 l 533 1111 l 642 1111 l 642 69 m 425 69 l 383 69 l 383 1111 l 425 1111 l 425 69 m 342 69 l 300 69 l 300 1111 l 342 1111 l 342 69 m 192 69 l 150 69 l 150 1111 l 192 1111 l 192 69 m 108 69 l 0 69 l 0 1111 l 108 1111 l 108 69 m 568 -115 q 546 -200 568 -154 q 501 -275 533 -226 l 471 -275 q 500 -232 490 -247 q 526 -182 517 -207 l 526 -181 q 506 -187 517 -187 q 468 -165 483 -187 q 453 -110 453 -143 q 469 -50 453 -72 q 513 -28 486 -28 q 553 -51 538 -28 q 568 -115 568 -75 m 206 -275 l 183 -275 l 183 -71 l 138 -125 l 138 -82 l 179 -32 l 206 -32 l 206 -275 m 543 -108 q 513 -60 543 -60 q 478 -108 478 -60 q 513 -157 478 -157 q 535 -144 526 -157 q 543 -108 543 -131 z "},"7":{"ha":683,"x_min":0,"x_max":642,"o":"m 642 69 l 533 69 l 533 1111 l 642 1111 l 642 69 m 425 69 l 383 69 l 383 1111 l 425 1111 l 425 69 m 275 69 l 233 69 l 233 1111 l 275 1111 l 275 69 m 192 69 l 83 69 l 83 1111 l 192 1111 l 192 69 m 42 69 l 0 69 l 0 1111 l 42 1111 l 42 69 m 568 -147 q 565 -219 568 -192 q 551 -261 563 -247 q 513 -275 540 -275 q 489 -272 500 -275 q 471 -261 478 -268 q 459 -219 461 -247 q 457 -147 457 -192 q 457 -110 457 -132 q 464 -62 457 -87 q 481 -33 468 -40 q 513 -25 493 -25 q 544 -32 533 -25 q 560 -58 556 -39 q 567 -101 565 -76 q 568 -147 568 -126 m 221 -94 q 207 -144 221 -124 q 176 -178 201 -153 q 151 -206 161 -190 q 142 -240 142 -221 l 218 -243 l 218 -275 l 117 -275 l 117 -257 q 127 -194 117 -217 q 164 -147 138 -172 q 185 -126 178 -135 q 197 -96 197 -111 q 188 -69 197 -78 q 169 -60 178 -60 q 147 -67 158 -60 q 121 -85 135 -74 l 121 -49 q 165 -28 142 -28 q 221 -94 221 -28 m 544 -150 l 544 -126 q 544 -99 544 -112 q 542 -83 542 -87 q 513 -57 542 -57 q 496 -57 504 -57 q 481 -83 485 -60 l 479 -150 q 480 -199 479 -172 q 487 -235 481 -225 q 513 -244 493 -244 q 537 -235 532 -244 q 542 -196 542 -226 q 544 -150 543 -165 z "},"8":{"ha":683,"x_min":0,"x_max":575,"o":"m 575 69 l 467 69 l 467 1111 l 575 1111 l 575 69 m 425 69 l 383 69 l 383 1111 l 425 1111 l 425 69 m 342 69 l 300 69 l 300 1111 l 342 1111 l 342 69 m 258 69 l 150 69 l 150 1111 l 258 1111 l 258 69 m 42 69 l 0 69 l 0 1111 l 42 1111 l 42 69 m 544 -275 l 521 -275 l 521 -71 l 478 -125 l 478 -82 l 519 -32 l 544 -32 l 544 -275 m 222 -94 q 208 -144 222 -124 q 176 -178 203 -154 q 153 -203 160 -192 q 142 -240 142 -219 l 218 -243 l 218 -275 l 118 -275 l 118 -257 q 128 -196 118 -217 q 165 -147 138 -175 q 186 -126 181 -133 q 197 -96 197 -112 q 190 -70 197 -81 q 171 -60 182 -60 q 147 -67 161 -60 q 121 -85 132 -75 l 121 -49 q 167 -28 142 -28 q 222 -94 222 -28 z "},"9":{"ha":683,"x_min":0,"x_max":575,"o":"m 575 69 l 467 69 l 467 1111 l 575 1111 l 575 69 m 425 69 l 383 69 l 383 1111 l 425 1111 l 425 69 m 342 69 l 300 69 l 300 1111 l 342 1111 l 342 69 m 192 69 l 83 69 l 83 1111 l 192 1111 l 192 69 m 42 69 l 0 69 l 0 1111 l 42 1111 l 42 69 m 563 -94 q 554 -135 563 -118 q 517 -178 546 -153 q 493 -203 500 -192 q 482 -240 482 -219 l 558 -243 l 558 -275 l 458 -275 l 458 -257 q 469 -194 458 -217 q 506 -147 479 -172 q 528 -124 518 -137 q 538 -96 538 -111 q 531 -71 538 -82 q 513 -60 524 -60 q 488 -67 501 -60 q 461 -85 474 -75 l 461 -49 q 507 -28 482 -28 q 563 -94 563 -28 m 222 -94 q 208 -144 222 -124 q 176 -178 203 -154 q 153 -203 160 -192 q 142 -240 142 -219 l 218 -243 l 218 -275 l 118 -275 l 118 -257 q 128 -196 118 -217 q 165 -147 138 -175 q 186 -126 181 -133 q 197 -96 197 -112 q 190 -70 197 -81 q 171 -60 182 -60 q 147 -67 161 -60 q 121 -85 132 -75 l 121 -49 q 167 -28 142 -28 q 222 -94 222 -28 z "}," ":{"ha":694,"x_min":0,"x_max":0,"o":""},"!":{"ha":167,"x_min":0,"x_max":125,"o":"m 125 69 l 83 69 l 83 1111 l 125 1111 l 125 69 m 42 69 l 0 69 l 0 1111 l 42 1111 l 42 69 z "},"\"":{"ha":192,"x_min":0,"x_max":192,"o":"m 192 69 l 150 69 l 150 1111 l 192 1111 l 192 69 m 108 69 l 0 69 l 0 1111 l 108 1111 l 108 69 z "},"#":{"ha":683,"x_min":0,"x_max":642,"o":"m 642 69 l 600 69 l 600 1111 l 642 1111 l 642 69 m 492 69 l 383 69 l 383 1111 l 492 1111 l 492 69 m 275 69 l 167 69 l 167 1111 l 275 1111 l 275 69 m 125 69 l 83 69 l 83 1111 l 125 1111 l 125 69 m 42 69 l 0 69 l 0 1111 l 42 1111 l 42 69 m 568 -147 q 565 -219 568 -192 q 551 -261 563 -247 q 513 -275 540 -275 q 489 -272 500 -275 q 471 -261 478 -268 q 459 -219 461 -247 q 457 -147 457 -192 q 457 -110 457 -132 q 464 -62 457 -87 q 481 -33 468 -40 q 513 -25 493 -25 q 544 -32 533 -25 q 560 -58 556 -39 q 567 -101 565 -76 q 568 -147 568 -126 m 228 -147 q 225 -219 228 -192 q 211 -261 222 -247 q 195 -272 206 -269 q 171 -275 185 -275 q 149 -272 160 -275 q 131 -261 138 -268 q 120 -227 125 -254 q 115 -160 115 -200 l 115 -147 q 115 -110 115 -132 q 122 -64 115 -87 q 140 -33 128 -40 q 171 -25 151 -25 q 203 -32 192 -25 q 220 -58 215 -39 q 226 -101 225 -76 q 228 -147 228 -126 m 544 -150 l 544 -126 q 544 -99 544 -112 q 542 -83 542 -87 q 513 -57 542 -57 q 496 -57 504 -57 q 481 -83 485 -60 l 479 -150 q 480 -199 479 -172 q 487 -235 481 -225 q 513 -244 493 -244 q 537 -235 532 -244 q 542 -196 542 -226 q 544 -150 543 -165 m 204 -150 l 204 -126 q 204 -99 204 -112 q 201 -76 201 -87 q 193 -61 200 -65 q 171 -57 186 -57 q 149 -61 156 -57 q 142 -82 143 -65 q 140 -112 140 -99 q 139 -135 139 -125 l 139 -150 q 140 -199 139 -172 q 146 -235 140 -225 q 171 -244 151 -244 q 197 -236 192 -244 q 203 -198 201 -228 q 204 -150 204 -168 z "},"$":{"ha":683,"x_min":0,"x_max":575,"o":"m 575 69 l 533 69 l 533 1111 l 575 1111 l 575 69 m 492 69 l 383 69 l 383 1111 l 492 1111 l 492 69 m 342 69 l 233 69 l 233 1111 l 342 1111 l 342 69 m 192 69 l 150 69 l 150 1111 l 192 1111 l 192 69 m 42 69 l 0 69 l 0 1111 l 42 1111 l 42 69 m 547 -275 l 524 -275 l 524 -71 l 479 -125 l 479 -82 l 521 -32 l 547 -32 l 547 -275 m 228 -147 q 225 -219 228 -192 q 211 -261 222 -247 q 195 -272 206 -269 q 171 -275 185 -275 q 149 -272 160 -275 q 131 -261 138 -268 q 120 -227 125 -254 q 115 -160 115 -200 l 115 -147 q 115 -110 115 -132 q 122 -64 115 -87 q 140 -33 128 -40 q 171 -25 151 -25 q 203 -32 192 -25 q 220 -58 215 -39 q 226 -101 225 -76 q 228 -147 228 -126 m 204 -150 l 204 -126 q 204 -99 204 -112 q 201 -76 201 -87 q 193 -61 200 -65 q 171 -57 186 -57 q 149 -61 156 -57 q 142 -82 143 -65 q 140 -112 140 -99 q 139 -135 139 -125 l 139 -150 q 140 -199 139 -172 q 146 -235 140 -225 q 171 -244 151 -244 q 197 -236 192 -244 q 203 -198 201 -228 q 204 -150 204 -168 z "},"%":{"ha":683,"x_min":0,"x_max":575,"o":"m 575 69 l 533 69 l 533 1111 l 575 1111 l 575 69 m 492 69 l 383 69 l 383 1111 l 492 1111 l 492 69 m 342 69 l 233 69 l 233 1111 l 342 1111 l 342 69 m 125 69 l 83 69 l 83 1111 l 125 1111 l 125 69 m 42 69 l 0 69 l 0 1111 l 42 1111 l 42 69 m 565 -94 q 551 -144 565 -124 q 519 -178 546 -154 q 496 -203 503 -192 q 485 -240 485 -219 l 561 -243 l 561 -275 l 461 -275 l 461 -257 q 471 -196 461 -217 q 508 -147 481 -175 q 529 -126 524 -133 q 540 -96 540 -112 q 533 -70 540 -81 q 514 -60 525 -60 q 490 -67 504 -60 q 464 -85 475 -75 l 464 -49 q 510 -28 485 -28 q 565 -94 565 -28 m 229 -147 q 226 -219 229 -192 q 213 -261 224 -247 q 191 -272 207 -269 q 172 -275 175 -275 q 132 -261 144 -275 q 122 -227 126 -254 q 117 -160 117 -200 l 117 -147 q 117 -110 117 -132 q 123 -64 117 -87 q 141 -33 129 -40 q 172 -25 153 -25 q 205 -32 193 -25 q 222 -58 217 -39 q 228 -101 226 -76 q 229 -147 229 -126 m 206 -150 l 204 -83 q 197 -62 201 -68 q 172 -57 193 -57 q 151 -61 157 -57 q 142 -83 144 -65 l 142 -150 q 142 -199 142 -172 q 149 -235 143 -225 q 172 -244 151 -244 q 198 -235 193 -244 q 203 -196 203 -226 q 206 -150 204 -165 z "},"&":{"ha":683,"x_min":0,"x_max":642,"o":"m 642 69 l 600 69 l 600 1111 l 642 1111 l 642 69 m 558 69 l 450 69 l 450 1111 l 558 1111 l 558 69 m 408 69 l 300 69 l 300 1111 l 408 1111 l 408 69 m 192 69 l 150 69 l 150 1111 l 192 1111 l 192 69 m 42 69 l 0 69 l 0 1111 l 42 1111 l 42 69 m 564 -199 q 545 -255 564 -235 q 499 -275 526 -275 q 454 -261 478 -275 l 454 -226 q 499 -244 472 -244 q 528 -233 517 -244 q 540 -196 540 -221 q 529 -162 540 -174 q 501 -151 518 -151 l 482 -151 l 482 -125 l 526 -61 l 454 -61 l 454 -29 l 557 -29 l 557 -64 l 514 -125 q 550 -144 536 -125 q 564 -199 564 -164 m 228 -147 q 225 -219 228 -192 q 211 -261 222 -247 q 195 -272 206 -269 q 171 -275 185 -275 q 149 -272 160 -275 q 131 -261 138 -268 q 120 -227 125 -254 q 115 -160 115 -200 l 115 -147 q 115 -110 115 -132 q 122 -64 115 -87 q 140 -33 128 -40 q 171 -25 151 -25 q 203 -32 192 -25 q 220 -58 215 -39 q 226 -101 225 -76 q 228 -147 228 -126 m 204 -150 l 204 -126 q 204 -99 204 -112 q 201 -76 201 -87 q 193 -61 200 -65 q 171 -57 186 -57 q 149 -61 156 -57 q 142 -82 143 -65 q 140 -112 140 -99 q 139 -135 139 -125 l 139 -150 q 140 -199 139 -172 q 146 -235 140 -225 q 171 -244 151 -244 q 197 -236 192 -244 q 203 -198 201 -228 q 204 -150 204 -168 z "},"'":{"ha":683,"x_min":0,"x_max":575,"o":"m 575 69 l 533 69 l 533 1111 l 575 1111 l 575 69 m 492 69 l 383 69 l 383 1111 l 492 1111 l 492 69 m 275 69 l 167 69 l 167 1111 l 275 1111 l 275 69 m 125 69 l 83 69 l 83 1111 l 125 1111 l 125 69 m 42 69 l 0 69 l 0 1111 l 42 1111 l 42 69 m 565 -222 l 544 -222 l 544 -275 l 519 -275 l 519 -222 l 457 -222 l 457 -186 l 506 -32 l 531 -32 l 479 -192 l 519 -192 l 519 -140 l 544 -140 l 544 -192 l 565 -192 l 565 -222 m 228 -147 q 225 -219 228 -192 q 211 -261 222 -247 q 195 -272 206 -269 q 171 -275 185 -275 q 149 -272 160 -275 q 131 -261 138 -268 q 120 -227 125 -254 q 115 -160 115 -200 l 115 -147 q 115 -110 115 -132 q 122 -64 115 -87 q 140 -33 128 -40 q 171 -25 151 -25 q 203 -32 192 -25 q 220 -58 215 -39 q 226 -101 225 -76 q 228 -147 228 -126 m 204 -150 l 204 -126 q 204 -99 204 -112 q 201 -76 201 -87 q 193 -61 200 -65 q 171 -57 186 -57 q 149 -61 156 -57 q 142 -82 143 -65 q 140 -112 140 -99 q 139 -135 139 -125 l 139 -150 q 140 -199 139 -172 q 146 -235 140 -225 q 171 -244 151 -244 q 197 -236 192 -244 q 203 -198 201 -228 q 204 -150 204 -168 z "},"(":{"ha":683,"x_min":0,"x_max":642,"o":"m 642 69 l 600 69 l 600 1111 l 642 1111 l 642 69 m 558 69 l 450 69 l 450 1111 l 558 1111 l 558 69 m 342 69 l 233 69 l 233 1111 l 342 1111 l 342 69 m 192 69 l 150 69 l 150 1111 l 192 1111 l 192 69 m 42 69 l 0 69 l 0 1111 l 42 1111 l 42 69 m 554 -186 q 532 -251 554 -228 q 467 -275 510 -275 l 460 -275 l 460 -244 l 474 -244 q 515 -231 496 -244 q 533 -185 533 -217 q 519 -147 533 -157 q 489 -139 504 -137 l 460 -143 l 464 -29 l 551 -29 l 551 -61 l 486 -61 l 485 -108 q 535 -127 517 -108 q 554 -186 554 -146 m 228 -147 q 225 -219 228 -192 q 211 -261 222 -247 q 195 -272 206 -269 q 171 -275 185 -275 q 149 -272 160 -275 q 131 -261 138 -268 q 120 -227 125 -254 q 115 -160 115 -200 l 115 -147 q 115 -110 115 -132 q 122 -64 115 -87 q 140 -33 128 -40 q 171 -25 151 -25 q 203 -32 192 -25 q 220 -58 215 -39 q 226 -101 225 -76 q 228 -147 228 -126 m 204 -150 l 204 -126 q 204 -99 204 -112 q 201 -76 201 -87 q 193 -61 200 -65 q 171 -57 186 -57 q 149 -61 156 -57 q 142 -82 143 -65 q 140 -112 140 -99 q 139 -135 139 -125 l 139 -150 q 140 -199 139 -172 q 146 -235 140 -225 q 171 -244 151 -244 q 197 -236 192 -244 q 203 -198 201 -228 q 204 -150 204 -168 z "},")":{"ha":683,"x_min":0,"x_max":642,"o":"m 642 69 l 600 69 l 600 1111 l 642 1111 l 642 69 m 558 69 l 450 69 l 450 1111 l 558 1111 l 558 69 m 342 69 l 233 69 l 233 1111 l 342 1111 l 342 69 m 125 69 l 83 69 l 83 1111 l 125 1111 l 125 69 m 42 69 l 0 69 l 0 1111 l 42 1111 l 42 69 m 568 -196 q 553 -254 568 -233 q 513 -275 538 -275 q 457 -193 457 -275 q 461 -144 457 -165 q 478 -101 465 -122 l 521 -29 l 551 -29 q 535 -56 540 -47 q 507 -101 514 -89 l 494 -122 q 517 -117 504 -117 q 553 -140 539 -117 q 568 -196 568 -162 m 228 -147 q 225 -219 228 -192 q 211 -261 222 -247 q 195 -272 206 -269 q 171 -275 185 -275 q 149 -272 160 -275 q 131 -261 138 -268 q 120 -227 125 -254 q 115 -160 115 -200 l 115 -147 q 115 -110 115 -132 q 122 -64 115 -87 q 140 -33 128 -40 q 171 -25 151 -25 q 203 -32 192 -25 q 220 -58 215 -39 q 226 -101 225 -76 q 228 -147 228 -126 m 544 -196 q 513 -147 544 -147 q 493 -154 500 -147 q 479 -194 479 -167 q 513 -244 479 -244 q 544 -196 544 -244 m 204 -150 l 204 -126 q 204 -99 204 -112 q 201 -76 201 -87 q 193 -61 200 -65 q 171 -57 186 -57 q 149 -61 156 -57 q 142 -82 143 -65 q 140 -112 140 -99 q 139 -135 139 -125 l 139 -150 q 140 -199 139 -172 q 146 -235 140 -225 q 171 -244 151 -244 q 197 -236 192 -244 q 203 -198 201 -228 q 204 -150 204 -168 z "},"*":{"ha":683,"x_min":0,"x_max":575,"o":"m 575 69 l 533 69 l 533 1111 l 575 1111 l 575 69 m 425 69 l 317 69 l 317 1111 l 425 1111 l 425 69 m 275 69 l 167 69 l 167 1111 l 275 1111 l 275 69 m 125 69 l 83 69 l 83 1111 l 125 1111 l 125 69 m 42 69 l 0 69 l 0 1111 l 42 1111 l 42 69 m 563 -74 q 544 -108 560 -93 q 515 -170 525 -142 q 506 -236 506 -199 l 506 -275 l 479 -275 l 479 -236 q 490 -167 479 -200 q 521 -101 501 -135 l 529 -87 q 538 -64 538 -74 l 457 -64 l 457 -32 l 568 -32 q 563 -74 568 -61 m 228 -147 q 225 -219 228 -192 q 211 -261 222 -247 q 195 -272 206 -269 q 171 -275 185 -275 q 149 -272 160 -275 q 131 -261 138 -268 q 120 -227 125 -254 q 115 -160 115 -200 l 115 -147 q 115 -110 115 -132 q 122 -64 115 -87 q 140 -33 128 -40 q 171 -25 151 -25 q 203 -32 192 -25 q 220 -58 215 -39 q 226 -101 225 -76 q 228 -147 228 -126 m 204 -150 l 204 -126 q 204 -99 204 -112 q 201 -76 201 -87 q 193 -61 200 -65 q 171 -57 186 -57 q 149 -61 156 -57 q 142 -82 143 -65 q 140 -112 140 -99 q 139 -135 139 -125 l 139 -150 q 140 -199 139 -172 q 146 -235 140 -225 q 171 -244 151 -244 q 197 -236 192 -244 q 203 -198 201 -228 q 204 -150 204 -168 z "},"+":{"ha":683,"x_min":0,"x_max":642,"o":"m 642 69 l 600 69 l 600 1111 l 642 1111 l 642 69 m 492 69 l 383 69 l 383 1111 l 492 1111 l 492 69 m 342 69 l 233 69 l 233 1111 l 342 1111 l 342 69 m 192 69 l 150 69 l 150 1111 l 192 1111 l 192 69 m 42 69 l 0 69 l 0 1111 l 42 1111 l 42 69 m 568 -208 q 513 -275 568 -275 q 472 -260 486 -275 q 457 -208 457 -244 q 492 -136 457 -161 q 469 -112 478 -125 q 461 -81 461 -99 q 476 -38 461 -51 q 513 -25 490 -25 q 547 -39 532 -25 q 563 -81 563 -53 q 554 -114 563 -100 q 533 -136 551 -118 q 559 -165 550 -149 q 568 -208 568 -182 m 229 -147 q 226 -219 229 -192 q 213 -261 224 -247 q 191 -272 207 -269 q 172 -275 175 -275 q 132 -261 144 -275 q 122 -227 126 -254 q 117 -160 117 -200 l 117 -147 q 117 -110 117 -132 q 123 -64 117 -87 q 141 -33 129 -40 q 172 -25 153 -25 q 205 -32 193 -25 q 222 -58 217 -39 q 228 -101 226 -76 q 229 -147 229 -126 m 538 -82 q 513 -57 538 -57 q 486 -82 486 -57 q 494 -106 486 -96 q 513 -119 501 -115 q 529 -105 521 -115 q 538 -82 538 -94 m 544 -206 q 539 -181 544 -192 q 513 -154 533 -171 q 489 -174 494 -167 q 479 -206 479 -186 q 489 -235 479 -225 q 513 -244 499 -244 q 544 -206 544 -244 m 206 -150 l 204 -83 q 197 -62 201 -68 q 172 -57 193 -57 q 151 -61 157 -57 q 142 -83 144 -65 l 142 -150 q 142 -199 142 -172 q 149 -235 143 -225 q 172 -244 151 -244 q 198 -235 193 -244 q 203 -196 203 -226 q 206 -150 204 -165 z "},",":{"ha":683,"x_min":0,"x_max":642,"o":"m 642 69 l 600 69 l 600 1111 l 642 1111 l 642 69 m 492 69 l 383 69 l 383 1111 l 492 1111 l 492 69 m 342 69 l 233 69 l 233 1111 l 342 1111 l 342 69 m 125 69 l 83 69 l 83 1111 l 125 1111 l 125 69 m 42 69 l 0 69 l 0 1111 l 42 1111 l 42 69 m 568 -115 q 546 -200 568 -154 q 501 -275 533 -226 l 471 -275 q 500 -232 490 -247 q 526 -182 517 -207 l 526 -181 q 506 -187 517 -187 q 468 -165 483 -187 q 453 -110 453 -143 q 469 -50 453 -72 q 513 -28 486 -28 q 553 -51 538 -28 q 568 -115 568 -75 m 228 -147 q 225 -219 228 -192 q 211 -261 222 -247 q 195 -272 206 -269 q 171 -275 185 -275 q 149 -272 160 -275 q 131 -261 138 -268 q 120 -227 125 -254 q 115 -160 115 -200 l 115 -147 q 115 -110 115 -132 q 122 -64 115 -87 q 140 -33 128 -40 q 171 -25 151 -25 q 203 -32 192 -25 q 220 -58 215 -39 q 226 -101 225 -76 q 228 -147 228 -126 m 543 -108 q 513 -60 543 -60 q 478 -108 478 -60 q 513 -157 478 -157 q 535 -144 526 -157 q 543 -108 543 -131 m 204 -150 l 204 -126 q 204 -99 204 -112 q 201 -76 201 -87 q 193 -61 200 -65 q 171 -57 186 -57 q 149 -61 156 -57 q 142 -82 143 -65 q 140 -112 140 -99 q 139 -135 139 -125 l 139 -150 q 140 -199 139 -172 q 146 -235 140 -225 q 171 -244 151 -244 q 197 -236 192 -244 q 203 -198 201 -228 q 204 -150 204 -168 z "},"-":{"ha":683,"x_min":0,"x_max":642,"o":"m 642 69 l 533 69 l 533 1111 l 642 1111 l 642 69 m 425 69 l 383 69 l 383 1111 l 425 1111 l 425 69 m 275 69 l 233 69 l 233 1111 l 275 1111 l 275 69 m 192 69 l 150 69 l 150 1111 l 192 1111 l 192 69 m 108 69 l 0 69 l 0 1111 l 108 1111 l 108 69 m 568 -147 q 565 -219 568 -192 q 551 -261 563 -247 q 513 -275 540 -275 q 489 -272 500 -275 q 471 -261 478 -268 q 459 -219 461 -247 q 457 -147 457 -192 q 457 -110 457 -132 q 464 -62 457 -87 q 481 -33 468 -40 q 513 -25 493 -25 q 544 -32 533 -25 q 560 -58 556 -39 q 567 -101 565 -76 q 568 -147 568 -126 m 208 -275 l 185 -275 l 185 -71 l 142 -125 l 142 -82 l 183 -32 l 208 -32 l 208 -275 m 544 -150 l 544 -126 q 544 -99 544 -112 q 542 -83 542 -87 q 513 -57 542 -57 q 496 -57 504 -57 q 481 -83 485 -60 l 479 -150 q 480 -199 479 -172 q 487 -235 481 -225 q 513 -244 493 -244 q 537 -235 532 -244 q 542 -196 542 -226 q 544 -150 543 -165 z "},".":{"ha":683,"x_min":0,"x_max":575,"o":"m 575 69 l 467 69 l 467 1111 l 575 1111 l 575 69 m 425 69 l 383 69 l 383 1111 l 425 1111 l 425 69 m 342 69 l 300 69 l 300 1111 l 342 1111 l 342 69 m 258 69 l 217 69 l 217 1111 l 258 1111 l 258 69 m 108 69 l 0 69 l 0 1111 l 108 1111 l 108 69 m 543 -275 l 519 -275 l 519 -71 l 475 -125 l 475 -82 l 517 -32 l 543 -32 l 543 -275 m 204 -275 l 179 -275 l 179 -71 l 135 -125 l 135 -82 l 176 -32 l 204 -32 l 204 -275 z "},"/":{"ha":683,"x_min":0,"x_max":575,"o":"m 575 69 l 467 69 l 467 1111 l 575 1111 l 575 69 m 425 69 l 383 69 l 383 1111 l 425 1111 l 425 69 m 342 69 l 300 69 l 300 1111 l 342 1111 l 342 69 m 192 69 l 150 69 l 150 1111 l 192 1111 l 192 69 m 108 69 l 0 69 l 0 1111 l 108 1111 l 108 69 m 568 -94 q 553 -144 568 -122 q 521 -178 546 -154 q 499 -203 507 -190 q 486 -240 486 -222 l 563 -243 l 563 -275 l 464 -275 l 464 -257 q 473 -194 464 -215 q 510 -147 482 -174 q 531 -126 525 -133 q 542 -96 542 -112 q 534 -70 542 -81 q 515 -60 526 -60 q 491 -68 506 -60 q 465 -85 476 -76 l 465 -49 q 513 -28 486 -28 q 551 -46 535 -28 q 568 -94 568 -64 m 215 -275 l 192 -275 l 192 -71 l 149 -125 l 149 -82 l 190 -32 l 215 -32 l 215 -275 z "},":":{"ha":683,"x_min":0,"x_max":642,"o":"m 642 69 l 533 69 l 533 1111 l 642 1111 l 642 69 m 492 69 l 450 69 l 450 1111 l 492 1111 l 492 69 m 408 69 l 367 69 l 367 1111 l 408 1111 l 408 69 m 258 69 l 150 69 l 150 1111 l 258 1111 l 258 69 m 42 69 l 0 69 l 0 1111 l 42 1111 l 42 69 m 578 -199 q 559 -255 578 -235 q 513 -275 540 -275 q 468 -261 492 -275 l 468 -226 q 513 -244 486 -244 q 542 -233 531 -244 q 554 -196 554 -221 q 543 -162 554 -174 q 515 -151 532 -151 l 496 -151 l 496 -125 l 540 -61 l 468 -61 l 468 -29 l 571 -29 l 571 -64 l 528 -125 q 564 -144 550 -125 q 578 -199 578 -164 m 225 -94 q 210 -144 225 -122 q 178 -178 203 -154 q 156 -203 164 -190 q 143 -240 143 -222 l 219 -243 l 219 -275 l 121 -275 l 121 -257 q 130 -194 121 -215 q 167 -147 139 -174 q 188 -126 182 -133 q 199 -96 199 -112 q 191 -70 199 -81 q 172 -60 183 -60 q 148 -68 163 -60 q 122 -85 133 -76 l 122 -49 q 169 -28 143 -28 q 208 -46 192 -28 q 225 -94 225 -64 z "},";":{"ha":683,"x_min":0,"x_max":575,"o":"m 575 69 l 467 69 l 467 1111 l 575 1111 l 575 69 m 425 69 l 383 69 l 383 1111 l 425 1111 l 425 69 m 275 69 l 233 69 l 233 1111 l 275 1111 l 275 69 m 192 69 l 83 69 l 83 1111 l 192 1111 l 192 69 m 42 69 l 0 69 l 0 1111 l 42 1111 l 42 69 m 564 -222 l 543 -222 l 543 -275 l 519 -275 l 519 -222 l 454 -222 l 454 -186 l 506 -32 l 529 -32 l 478 -192 l 519 -192 l 519 -140 l 543 -140 l 543 -192 l 564 -192 l 564 -222 m 225 -94 q 210 -144 225 -122 q 178 -178 203 -154 q 156 -203 164 -190 q 143 -240 143 -222 l 219 -243 l 219 -275 l 121 -275 l 121 -257 q 130 -194 121 -215 q 167 -147 139 -174 q 188 -126 182 -133 q 199 -96 199 -112 q 191 -70 199 -81 q 172 -60 183 -60 q 148 -68 163 -60 q 122 -85 133 -76 l 122 -49 q 169 -28 143 -28 q 208 -46 192 -28 q 225 -94 225 -64 z "},"<":{"ha":683,"x_min":0,"x_max":642,"o":"m 642 69 l 533 69 l 533 1111 l 642 1111 l 642 69 m 492 69 l 450 69 l 450 1111 l 492 1111 l 492 69 m 342 69 l 300 69 l 300 1111 l 342 1111 l 342 69 m 258 69 l 150 69 l 150 1111 l 258 1111 l 258 69 m 42 69 l 0 69 l 0 1111 l 42 1111 l 42 69 m 554 -186 q 532 -251 554 -228 q 467 -275 510 -275 l 460 -275 l 460 -244 l 474 -244 q 515 -231 496 -244 q 533 -185 533 -217 q 519 -147 533 -157 q 489 -139 504 -137 l 460 -143 l 464 -29 l 551 -29 l 551 -61 l 486 -61 l 485 -108 q 535 -127 517 -108 q 554 -186 554 -146 m 225 -94 q 211 -144 225 -124 q 179 -178 206 -154 q 156 -203 163 -192 q 144 -240 144 -219 l 221 -243 l 221 -275 l 121 -275 l 121 -257 q 131 -194 121 -217 q 169 -147 142 -172 q 189 -126 185 -132 q 200 -96 200 -111 q 192 -70 200 -81 q 174 -60 185 -60 q 149 -68 164 -60 q 124 -85 135 -76 l 124 -49 q 169 -28 144 -28 q 225 -94 225 -28 z "},"=":{"ha":683,"x_min":0,"x_max":642,"o":"m 642 69 l 533 69 l 533 1111 l 642 1111 l 642 69 m 492 69 l 450 69 l 450 1111 l 492 1111 l 492 69 m 342 69 l 300 69 l 300 1111 l 342 1111 l 342 69 m 192 69 l 83 69 l 83 1111 l 192 1111 l 192 69 m 42 69 l 0 69 l 0 1111 l 42 1111 l 42 69 m 568 -196 q 553 -254 568 -233 q 513 -275 538 -275 q 457 -193 457 -275 q 461 -144 457 -165 q 478 -101 465 -122 l 521 -29 l 551 -29 q 535 -56 540 -47 q 507 -101 514 -89 l 494 -122 q 517 -117 504 -117 q 553 -140 539 -117 q 568 -196 568 -162 m 225 -94 q 210 -144 225 -122 q 178 -178 203 -154 q 156 -203 164 -190 q 143 -240 143 -222 l 219 -243 l 219 -275 l 121 -275 l 121 -257 q 130 -194 121 -215 q 167 -147 139 -174 q 188 -126 182 -133 q 199 -96 199 -112 q 191 -70 199 -81 q 172 -60 183 -60 q 148 -68 163 -60 q 122 -85 133 -76 l 122 -49 q 169 -28 143 -28 q 208 -46 192 -28 q 225 -94 225 -64 m 544 -196 q 513 -147 544 -147 q 493 -154 500 -147 q 479 -194 479 -167 q 513 -244 479 -244 q 544 -196 544 -244 z "},">":{"ha":683,"x_min":0,"x_max":575,"o":"m 575 69 l 467 69 l 467 1111 l 575 1111 l 575 69 m 358 69 l 317 69 l 317 1111 l 358 1111 l 358 69 m 275 69 l 233 69 l 233 1111 l 275 1111 l 275 69 m 192 69 l 83 69 l 83 1111 l 192 1111 l 192 69 m 42 69 l 0 69 l 0 1111 l 42 1111 l 42 69 m 563 -74 q 544 -108 560 -93 q 515 -170 525 -142 q 506 -236 506 -199 l 506 -275 l 479 -275 l 479 -236 q 490 -167 479 -200 q 521 -101 501 -135 l 529 -87 q 538 -64 538 -74 l 457 -64 l 457 -32 l 568 -32 q 563 -74 568 -61 m 222 -94 q 208 -144 222 -124 q 176 -178 203 -154 q 153 -203 160 -192 q 142 -240 142 -219 l 218 -243 l 218 -275 l 118 -275 l 118 -257 q 128 -196 118 -217 q 165 -147 138 -175 q 186 -126 181 -133 q 197 -96 197 -112 q 190 -70 197 -81 q 171 -60 182 -60 q 147 -67 161 -60 q 121 -85 132 -75 l 121 -49 q 167 -28 142 -28 q 222 -94 222 -28 z "},"?":{"ha":683,"x_min":0,"x_max":642,"o":"m 642 69 l 533 69 l 533 1111 l 642 1111 l 642 69 m 425 69 l 383 69 l 383 1111 l 425 1111 l 425 69 m 342 69 l 300 69 l 300 1111 l 342 1111 l 342 69 m 258 69 l 150 69 l 150 1111 l 258 1111 l 258 69 m 42 69 l 0 69 l 0 1111 l 42 1111 l 42 69 m 569 -208 q 553 -258 569 -242 q 513 -275 538 -275 q 472 -260 488 -275 q 457 -208 457 -244 q 492 -136 457 -161 q 478 -121 482 -126 q 464 -81 464 -103 q 478 -38 464 -51 q 513 -25 492 -25 q 549 -39 533 -25 q 564 -81 564 -53 q 556 -114 564 -100 q 535 -136 553 -118 q 560 -165 551 -149 q 569 -208 569 -182 m 225 -94 q 210 -144 225 -122 q 178 -178 203 -154 q 156 -203 164 -190 q 143 -240 143 -222 l 219 -243 l 219 -275 l 121 -275 l 121 -257 q 130 -194 121 -215 q 167 -147 139 -174 q 188 -126 182 -133 q 199 -96 199 -112 q 191 -70 199 -81 q 172 -60 183 -60 q 148 -68 163 -60 q 122 -85 133 -76 l 122 -49 q 169 -28 143 -28 q 208 -46 192 -28 q 225 -94 225 -64 m 540 -82 q 532 -62 540 -68 q 513 -57 524 -57 q 488 -82 488 -57 q 495 -106 488 -96 q 513 -119 503 -115 q 532 -106 524 -115 q 540 -82 540 -96 m 547 -206 q 536 -175 547 -189 q 513 -154 531 -167 q 490 -174 496 -167 q 481 -206 481 -186 q 496 -239 481 -229 q 513 -244 504 -244 q 538 -235 528 -244 q 547 -206 547 -226 z "},"@":{"ha":683,"x_min":0,"x_max":642,"o":"m 642 69 l 533 69 l 533 1111 l 642 1111 l 642 69 m 425 69 l 383 69 l 383 1111 l 425 1111 l 425 69 m 342 69 l 300 69 l 300 1111 l 342 1111 l 342 69 m 192 69 l 83 69 l 83 1111 l 192 1111 l 192 69 m 42 69 l 0 69 l 0 1111 l 42 1111 l 42 69 m 568 -115 q 547 -200 568 -154 q 503 -275 533 -232 l 471 -275 q 508 -221 496 -242 q 528 -182 517 -207 l 526 -181 q 507 -187 519 -187 q 469 -165 485 -187 q 454 -110 454 -143 q 469 -50 454 -72 q 513 -28 485 -28 q 568 -115 568 -28 m 222 -94 q 208 -144 222 -124 q 176 -178 203 -154 q 153 -203 160 -192 q 142 -240 142 -219 l 218 -243 l 218 -275 l 118 -275 l 118 -257 q 128 -196 118 -217 q 165 -147 138 -175 q 186 -126 181 -133 q 197 -96 197 -112 q 190 -70 197 -81 q 171 -60 182 -60 q 147 -67 161 -60 q 121 -85 132 -75 l 121 -49 q 167 -28 142 -28 q 222 -94 222 -28 m 544 -108 q 513 -60 544 -60 q 478 -108 478 -60 q 513 -157 478 -157 q 536 -144 528 -157 q 544 -108 544 -131 z "},"A":{"ha":683,"x_min":0,"x_max":642,"o":"m 642 69 l 600 69 l 600 1111 l 642 1111 l 642 69 m 492 69 l 450 69 l 450 1111 l 492 1111 l 492 69 m 342 69 l 300 69 l 300 1111 l 342 1111 l 342 69 m 258 69 l 150 69 l 150 1111 l 258 1111 l 258 69 m 108 69 l 0 69 l 0 1111 l 108 1111 l 108 69 m 568 -147 q 565 -219 568 -192 q 551 -261 563 -247 q 513 -275 540 -275 q 489 -272 500 -275 q 471 -261 478 -268 q 459 -219 461 -247 q 457 -147 457 -192 q 457 -110 457 -132 q 464 -62 457 -87 q 481 -33 468 -40 q 513 -25 493 -25 q 544 -32 533 -25 q 560 -58 556 -39 q 567 -101 565 -76 q 568 -147 568 -126 m 233 -199 q 214 -255 233 -235 q 167 -275 194 -275 q 124 -261 147 -275 l 124 -226 q 167 -244 142 -244 q 198 -233 185 -244 q 211 -196 211 -221 q 199 -163 211 -175 q 171 -151 188 -151 l 151 -151 l 151 -125 l 197 -61 l 124 -61 l 124 -29 l 226 -29 l 226 -64 l 183 -125 q 219 -144 206 -125 q 233 -199 233 -164 m 544 -150 l 544 -126 q 544 -99 544 -112 q 542 -83 542 -87 q 513 -57 542 -57 q 496 -57 504 -57 q 481 -83 485 -60 l 479 -150 q 480 -199 479 -172 q 487 -235 481 -225 q 513 -244 493 -244 q 537 -235 532 -244 q 542 -196 542 -226 q 544 -150 543 -165 z "},"B":{"ha":683,"x_min":0,"x_max":575,"o":"m 575 69 l 533 69 l 533 1111 l 575 1111 l 575 69 m 492 69 l 450 69 l 450 1111 l 492 1111 l 492 69 m 408 69 l 367 69 l 367 1111 l 408 1111 l 408 69 m 325 69 l 217 69 l 217 1111 l 325 1111 l 325 69 m 108 69 l 0 69 l 0 1111 l 108 1111 l 108 69 m 544 -275 l 521 -275 l 521 -71 l 478 -125 l 478 -82 l 519 -32 l 544 -32 l 544 -275 m 233 -199 q 214 -255 233 -235 q 167 -275 194 -275 q 124 -261 147 -275 l 124 -226 q 167 -244 142 -244 q 198 -233 185 -244 q 211 -196 211 -221 q 199 -163 211 -175 q 171 -151 188 -151 l 151 -151 l 151 -125 l 197 -61 l 124 -61 l 124 -29 l 226 -29 l 226 -64 l 183 -125 q 219 -144 206 -125 q 233 -199 233 -164 z "},"C":{"ha":683,"x_min":0,"x_max":575,"o":"m 575 69 l 533 69 l 533 1111 l 575 1111 l 575 69 m 492 69 l 450 69 l 450 1111 l 492 1111 l 492 69 m 408 69 l 367 69 l 367 1111 l 408 1111 l 408 69 m 258 69 l 150 69 l 150 1111 l 258 1111 l 258 69 m 108 69 l 0 69 l 0 1111 l 108 1111 l 108 69 m 564 -94 q 550 -144 564 -124 q 519 -178 544 -153 q 494 -206 504 -190 q 485 -240 485 -221 l 561 -243 l 561 -275 l 460 -275 l 460 -257 q 470 -194 460 -217 q 507 -147 481 -172 q 528 -126 521 -135 q 540 -96 540 -111 q 531 -69 540 -78 q 513 -60 521 -60 q 490 -67 501 -60 q 464 -85 478 -74 l 464 -49 q 508 -28 485 -28 q 564 -94 564 -28 m 235 -199 q 216 -255 235 -235 q 169 -275 197 -275 q 125 -261 149 -275 l 125 -226 q 169 -244 143 -244 q 199 -233 188 -244 q 211 -196 211 -221 q 200 -162 211 -174 q 172 -151 189 -151 l 153 -151 l 153 -125 l 197 -61 l 125 -61 l 125 -29 l 228 -29 l 228 -64 l 185 -125 q 221 -144 207 -125 q 235 -199 235 -164 z "},"D":{"ha":683,"x_min":0,"x_max":642,"o":"m 642 69 l 600 69 l 600 1111 l 642 1111 l 642 69 m 558 69 l 517 69 l 517 1111 l 558 1111 l 558 69 m 475 69 l 433 69 l 433 1111 l 475 1111 l 475 69 m 325 69 l 217 69 l 217 1111 l 325 1111 l 325 69 m 108 69 l 0 69 l 0 1111 l 108 1111 l 108 69 m 575 -199 q 555 -255 575 -235 q 507 -275 535 -275 q 464 -261 488 -275 l 464 -226 q 507 -244 482 -244 q 538 -233 525 -244 q 550 -196 550 -221 q 513 -151 550 -151 l 492 -151 l 492 -125 l 536 -61 l 464 -61 l 464 -29 l 568 -29 l 568 -64 l 524 -125 q 561 -144 547 -125 q 575 -199 575 -164 m 235 -199 q 216 -255 235 -235 q 169 -275 197 -275 q 125 -261 149 -275 l 125 -226 q 169 -244 143 -244 q 199 -233 188 -244 q 211 -196 211 -221 q 200 -162 211 -174 q 172 -151 189 -151 l 153 -151 l 153 -125 l 197 -61 l 125 -61 l 125 -29 l 228 -29 l 228 -64 l 185 -125 q 221 -144 207 -125 q 235 -199 235 -164 z "},"E":{"ha":683,"x_min":0,"x_max":575,"o":"m 575 69 l 533 69 l 533 1111 l 575 1111 l 575 69 m 492 69 l 450 69 l 450 1111 l 492 1111 l 492 69 m 342 69 l 300 69 l 300 1111 l 342 1111 l 342 69 m 258 69 l 150 69 l 150 1111 l 258 1111 l 258 69 m 108 69 l 0 69 l 0 1111 l 108 1111 l 108 69 m 568 -222 l 547 -222 l 547 -275 l 522 -275 l 522 -222 l 458 -222 l 458 -186 l 508 -32 l 533 -32 l 482 -192 l 522 -192 l 522 -140 l 547 -140 l 547 -192 l 568 -192 l 568 -222 m 235 -199 q 216 -255 235 -235 q 169 -275 197 -275 q 125 -261 149 -275 l 125 -226 q 169 -244 143 -244 q 199 -233 188 -244 q 211 -196 211 -221 q 200 -162 211 -174 q 172 -151 189 -151 l 153 -151 l 153 -125 l 197 -61 l 125 -61 l 125 -29 l 228 -29 l 228 -64 l 185 -125 q 221 -144 207 -125 q 235 -199 235 -164 z "},"F":{"ha":683,"x_min":0,"x_max":642,"o":"m 642 69 l 600 69 l 600 1111 l 642 1111 l 642 69 m 558 69 l 517 69 l 517 1111 l 558 1111 l 558 69 m 408 69 l 367 69 l 367 1111 l 408 1111 l 408 69 m 325 69 l 217 69 l 217 1111 l 325 1111 l 325 69 m 108 69 l 0 69 l 0 1111 l 108 1111 l 108 69 m 551 -186 q 529 -251 551 -228 q 464 -275 507 -275 l 457 -275 l 457 -244 l 471 -244 q 512 -231 494 -244 q 529 -185 529 -217 q 515 -147 529 -157 q 486 -139 501 -137 l 457 -143 l 461 -29 l 549 -29 l 549 -61 l 485 -61 l 481 -108 l 486 -108 q 533 -126 515 -108 q 551 -186 551 -144 m 233 -199 q 214 -255 233 -235 q 167 -275 194 -275 q 124 -261 147 -275 l 124 -226 q 167 -244 142 -244 q 198 -233 185 -244 q 211 -196 211 -221 q 199 -163 211 -175 q 171 -151 188 -151 l 151 -151 l 151 -125 l 197 -61 l 124 -61 l 124 -29 l 226 -29 l 226 -64 l 183 -125 q 219 -144 206 -125 q 233 -199 233 -164 z "},"G":{"ha":683,"x_min":0,"x_max":642,"o":"m 642 69 l 600 69 l 600 1111 l 642 1111 l 642 69 m 558 69 l 517 69 l 517 1111 l 558 1111 l 558 69 m 408 69 l 367 69 l 367 1111 l 408 1111 l 408 69 m 258 69 l 150 69 l 150 1111 l 258 1111 l 258 69 m 108 69 l 0 69 l 0 1111 l 108 1111 l 108 69 m 565 -196 q 550 -254 565 -233 q 510 -275 535 -275 q 453 -193 453 -275 q 475 -101 453 -139 l 519 -29 l 549 -29 q 526 -64 533 -53 q 506 -101 513 -85 l 492 -122 q 514 -117 501 -117 q 551 -140 536 -117 q 565 -196 565 -162 m 233 -199 q 214 -255 233 -235 q 167 -275 194 -275 q 124 -261 147 -275 l 124 -226 q 167 -244 142 -244 q 198 -233 185 -244 q 211 -196 211 -221 q 199 -163 211 -175 q 171 -151 188 -151 l 151 -151 l 151 -125 l 197 -61 l 124 -61 l 124 -29 l 226 -29 l 226 -64 l 183 -125 q 219 -144 206 -125 q 233 -199 233 -164 m 542 -196 q 508 -147 542 -147 q 486 -161 494 -147 q 478 -194 478 -175 q 508 -244 478 -244 q 542 -196 542 -244 z "},"H":{"ha":683,"x_min":0,"x_max":575,"o":"m 575 69 l 533 69 l 533 1111 l 575 1111 l 575 69 m 425 69 l 383 69 l 383 1111 l 425 1111 l 425 69 m 342 69 l 300 69 l 300 1111 l 342 1111 l 342 69 m 258 69 l 150 69 l 150 1111 l 258 1111 l 258 69 m 108 69 l 0 69 l 0 1111 l 108 1111 l 108 69 m 561 -74 q 553 -93 558 -83 q 543 -108 549 -103 q 521 -151 531 -131 q 503 -236 503 -190 l 503 -275 l 478 -275 l 478 -236 q 488 -167 478 -197 q 519 -101 499 -136 l 528 -87 q 536 -64 536 -76 l 454 -64 l 454 -32 l 565 -32 q 561 -74 565 -61 m 233 -199 q 214 -255 233 -235 q 167 -275 194 -275 q 124 -261 147 -275 l 124 -226 q 167 -244 142 -244 q 198 -233 185 -244 q 211 -196 211 -221 q 199 -163 211 -175 q 171 -151 188 -151 l 151 -151 l 151 -125 l 197 -61 l 124 -61 l 124 -29 l 226 -29 l 226 -64 l 183 -125 q 219 -144 206 -125 q 233 -199 233 -164 z "},"I":{"ha":683,"x_min":0,"x_max":642,"o":"m 642 69 l 600 69 l 600 1111 l 642 1111 l 642 69 m 492 69 l 450 69 l 450 1111 l 492 1111 l 492 69 m 408 69 l 367 69 l 367 1111 l 408 1111 l 408 69 m 325 69 l 217 69 l 217 1111 l 325 1111 l 325 69 m 108 69 l 0 69 l 0 1111 l 108 1111 l 108 69 m 568 -208 q 513 -275 568 -275 q 472 -260 486 -275 q 457 -208 457 -244 q 492 -136 457 -161 q 469 -112 478 -125 q 461 -81 461 -99 q 476 -38 461 -51 q 513 -25 490 -25 q 547 -39 532 -25 q 563 -81 563 -53 q 554 -114 563 -100 q 533 -136 551 -118 q 559 -165 550 -149 q 568 -208 568 -182 m 235 -199 q 216 -255 235 -235 q 169 -275 197 -275 q 125 -261 149 -275 l 125 -226 q 169 -244 143 -244 q 199 -233 188 -244 q 211 -196 211 -221 q 200 -162 211 -174 q 172 -151 189 -151 l 153 -151 l 153 -125 l 197 -61 l 125 -61 l 125 -29 l 228 -29 l 228 -64 l 185 -125 q 221 -144 207 -125 q 235 -199 235 -164 m 538 -82 q 513 -57 538 -57 q 486 -82 486 -57 q 494 -106 486 -96 q 513 -119 501 -115 q 529 -105 521 -115 q 538 -82 538 -94 m 544 -206 q 539 -181 544 -192 q 513 -154 533 -171 q 489 -174 494 -167 q 479 -206 479 -186 q 489 -235 479 -225 q 513 -244 499 -244 q 544 -206 544 -244 z "},"J":{"ha":683,"x_min":0,"x_max":642,"o":"m 642 69 l 600 69 l 600 1111 l 642 1111 l 642 69 m 492 69 l 450 69 l 450 1111 l 492 1111 l 492 69 m 408 69 l 367 69 l 367 1111 l 408 1111 l 408 69 m 258 69 l 150 69 l 150 1111 l 258 1111 l 258 69 m 108 69 l 0 69 l 0 1111 l 108 1111 l 108 69 m 568 -115 q 546 -200 568 -154 q 501 -275 533 -226 l 471 -275 q 500 -232 490 -247 q 526 -182 517 -207 l 526 -181 q 506 -187 517 -187 q 468 -165 483 -187 q 453 -110 453 -143 q 469 -50 453 -72 q 513 -28 486 -28 q 553 -51 538 -28 q 568 -115 568 -75 m 233 -199 q 214 -255 233 -235 q 167 -275 194 -275 q 124 -261 147 -275 l 124 -226 q 167 -244 142 -244 q 198 -233 185 -244 q 211 -196 211 -221 q 199 -163 211 -175 q 171 -151 188 -151 l 151 -151 l 151 -125 l 197 -61 l 124 -61 l 124 -29 l 226 -29 l 226 -64 l 183 -125 q 219 -144 206 -125 q 233 -199 233 -164 m 543 -108 q 513 -60 543 -60 q 478 -108 478 -60 q 513 -157 478 -157 q 535 -144 526 -157 q 543 -108 543 -131 z "},"K":{"ha":683,"x_min":0,"x_max":642,"o":"m 642 69 l 533 69 l 533 1111 l 642 1111 l 642 69 m 425 69 l 383 69 l 383 1111 l 425 1111 l 425 69 m 275 69 l 167 69 l 167 1111 l 275 1111 l 275 69 m 125 69 l 83 69 l 83 1111 l 125 1111 l 125 69 m 42 69 l 0 69 l 0 1111 l 42 1111 l 42 69 m 568 -147 q 565 -219 568 -192 q 551 -261 563 -247 q 513 -275 540 -275 q 489 -272 500 -275 q 471 -261 478 -268 q 459 -219 461 -247 q 457 -147 457 -192 q 457 -110 457 -132 q 464 -62 457 -87 q 481 -33 468 -40 q 513 -25 493 -25 q 544 -32 533 -25 q 560 -58 556 -39 q 567 -101 565 -76 q 568 -147 568 -126 m 228 -222 l 207 -222 l 207 -275 l 183 -275 l 183 -222 l 118 -222 l 118 -186 l 169 -32 l 193 -32 l 142 -192 l 183 -192 l 183 -140 l 207 -140 l 207 -192 l 228 -192 l 228 -222 m 544 -150 l 544 -126 q 544 -99 544 -112 q 542 -83 542 -87 q 513 -57 542 -57 q 496 -57 504 -57 q 481 -83 485 -60 l 479 -150 q 480 -199 479 -172 q 487 -235 481 -225 q 513 -244 493 -244 q 537 -235 532 -244 q 542 -196 542 -226 q 544 -150 543 -165 z "},"L":{"ha":683,"x_min":0,"x_max":575,"o":"m 575 69 l 467 69 l 467 1111 l 575 1111 l 575 69 m 425 69 l 383 69 l 383 1111 l 425 1111 l 425 69 m 342 69 l 233 69 l 233 1111 l 342 1111 l 342 69 m 192 69 l 150 69 l 150 1111 l 192 1111 l 192 69 m 42 69 l 0 69 l 0 1111 l 42 1111 l 42 69 m 547 -275 l 522 -275 l 522 -71 l 478 -125 l 478 -82 l 519 -32 l 547 -32 l 547 -275 m 232 -222 l 211 -222 l 211 -275 l 186 -275 l 186 -222 l 122 -222 l 122 -186 l 172 -32 l 197 -32 l 146 -192 l 186 -192 l 186 -140 l 211 -140 l 211 -192 l 232 -192 l 232 -222 z "},"M":{"ha":683,"x_min":0,"x_max":575,"o":"m 575 69 l 467 69 l 467 1111 l 575 1111 l 575 69 m 425 69 l 383 69 l 383 1111 l 425 1111 l 425 69 m 342 69 l 233 69 l 233 1111 l 342 1111 l 342 69 m 125 69 l 83 69 l 83 1111 l 125 1111 l 125 69 m 42 69 l 0 69 l 0 1111 l 42 1111 l 42 69 m 565 -94 q 551 -144 565 -124 q 519 -178 546 -154 q 496 -203 503 -192 q 485 -240 485 -219 l 561 -243 l 561 -275 l 461 -275 l 461 -257 q 471 -196 461 -217 q 508 -147 481 -175 q 529 -126 524 -133 q 540 -96 540 -112 q 533 -70 540 -81 q 514 -60 525 -60 q 490 -67 504 -60 q 464 -85 475 -75 l 464 -49 q 510 -28 485 -28 q 565 -94 565 -28 m 229 -222 l 208 -222 l 208 -275 l 183 -275 l 183 -222 l 121 -222 l 121 -186 l 169 -32 l 194 -32 l 143 -192 l 183 -192 l 183 -140 l 208 -140 l 208 -192 l 229 -192 l 229 -222 z "},"N":{"ha":683,"x_min":0,"x_max":642,"o":"m 642 69 l 533 69 l 533 1111 l 642 1111 l 642 69 m 492 69 l 450 69 l 450 1111 l 492 1111 l 492 69 m 408 69 l 300 69 l 300 1111 l 408 1111 l 408 69 m 192 69 l 150 69 l 150 1111 l 192 1111 l 192 69 m 42 69 l 0 69 l 0 1111 l 42 1111 l 42 69 m 569 -199 q 550 -255 569 -235 q 503 -275 531 -275 q 460 -261 483 -275 l 460 -226 q 503 -244 478 -244 q 534 -233 521 -244 q 547 -196 547 -221 q 535 -163 547 -175 q 507 -151 524 -151 l 488 -151 l 488 -125 l 533 -61 l 460 -61 l 460 -29 l 563 -29 l 563 -64 l 519 -125 q 556 -144 542 -125 q 569 -199 569 -164 m 236 -222 l 215 -222 l 215 -275 l 190 -275 l 190 -222 l 128 -222 l 128 -186 l 176 -32 l 201 -32 l 150 -192 l 190 -192 l 190 -140 l 215 -140 l 215 -192 l 236 -192 l 236 -222 z "},"O":{"ha":683,"x_min":0,"x_max":575,"o":"m 575 69 l 467 69 l 467 1111 l 575 1111 l 575 69 m 425 69 l 383 69 l 383 1111 l 425 1111 l 425 69 m 275 69 l 167 69 l 167 1111 l 275 1111 l 275 69 m 125 69 l 83 69 l 83 1111 l 125 1111 l 125 69 m 42 69 l 0 69 l 0 1111 l 42 1111 l 42 69 m 572 -222 l 551 -222 l 551 -275 l 526 -275 l 526 -222 l 464 -222 l 464 -186 l 513 -32 l 538 -32 l 486 -192 l 526 -192 l 526 -140 l 551 -140 l 551 -192 l 572 -192 l 572 -222 m 232 -222 l 211 -222 l 211 -275 l 185 -275 l 185 -222 l 121 -222 l 121 -186 l 171 -32 l 197 -32 l 144 -192 l 185 -192 l 185 -140 l 211 -140 l 211 -192 l 232 -192 l 232 -222 z "},"P":{"ha":683,"x_min":0,"x_max":642,"o":"m 642 69 l 533 69 l 533 1111 l 642 1111 l 642 69 m 492 69 l 450 69 l 450 1111 l 492 1111 l 492 69 m 342 69 l 233 69 l 233 1111 l 342 1111 l 342 69 m 192 69 l 150 69 l 150 1111 l 192 1111 l 192 69 m 42 69 l 0 69 l 0 1111 l 42 1111 l 42 69 m 558 -186 q 536 -251 558 -228 q 471 -275 514 -275 l 464 -275 l 464 -244 l 478 -244 q 519 -231 501 -244 q 536 -185 536 -217 q 522 -147 536 -157 q 493 -139 508 -137 l 464 -143 l 468 -29 l 556 -29 l 556 -61 l 492 -61 l 488 -108 l 493 -108 q 540 -126 522 -108 q 558 -186 558 -144 m 228 -222 l 207 -222 l 207 -275 l 183 -275 l 183 -222 l 118 -222 l 118 -186 l 169 -32 l 193 -32 l 142 -192 l 183 -192 l 183 -140 l 207 -140 l 207 -192 l 228 -192 l 228 -222 z "},"Q":{"ha":683,"x_min":0,"x_max":642,"o":"m 642 69 l 533 69 l 533 1111 l 642 1111 l 642 69 m 492 69 l 450 69 l 450 1111 l 492 1111 l 492 69 m 342 69 l 233 69 l 233 1111 l 342 1111 l 342 69 m 125 69 l 83 69 l 83 1111 l 125 1111 l 125 69 m 42 69 l 0 69 l 0 1111 l 42 1111 l 42 69 m 568 -196 q 553 -254 568 -233 q 513 -275 538 -275 q 454 -193 454 -275 q 458 -143 454 -162 q 478 -101 463 -124 l 519 -29 l 550 -29 l 506 -101 l 493 -122 q 515 -117 503 -117 q 553 -140 539 -117 q 568 -196 568 -162 m 228 -222 l 207 -222 l 207 -275 l 183 -275 l 183 -222 l 118 -222 l 118 -186 l 169 -32 l 193 -32 l 142 -192 l 183 -192 l 183 -140 l 207 -140 l 207 -192 l 228 -192 l 228 -222 m 543 -196 q 510 -147 543 -147 q 488 -161 497 -147 q 478 -194 478 -175 q 486 -231 478 -218 q 510 -244 494 -244 q 543 -196 543 -244 z "},"R":{"ha":683,"x_min":0,"x_max":575,"o":"m 575 69 l 467 69 l 467 1111 l 575 1111 l 575 69 m 358 69 l 317 69 l 317 1111 l 358 1111 l 358 69 m 275 69 l 167 69 l 167 1111 l 275 1111 l 275 69 m 125 69 l 83 69 l 83 1111 l 125 1111 l 125 69 m 42 69 l 0 69 l 0 1111 l 42 1111 l 42 69 m 563 -74 q 544 -108 560 -93 q 515 -170 525 -142 q 506 -236 506 -199 l 506 -275 l 479 -275 l 479 -236 q 490 -167 479 -200 q 521 -101 501 -135 l 529 -87 q 538 -64 538 -74 l 457 -64 l 457 -32 l 568 -32 q 563 -74 568 -61 m 228 -222 l 207 -222 l 207 -275 l 183 -275 l 183 -222 l 118 -222 l 118 -186 l 169 -32 l 193 -32 l 142 -192 l 183 -192 l 183 -140 l 207 -140 l 207 -192 l 228 -192 l 228 -222 z "},"S":{"ha":683,"x_min":0,"x_max":642,"o":"m 642 69 l 533 69 l 533 1111 l 642 1111 l 642 69 m 425 69 l 383 69 l 383 1111 l 425 1111 l 425 69 m 342 69 l 233 69 l 233 1111 l 342 1111 l 342 69 m 192 69 l 150 69 l 150 1111 l 192 1111 l 192 69 m 42 69 l 0 69 l 0 1111 l 42 1111 l 42 69 m 568 -208 q 513 -275 568 -275 q 472 -260 486 -275 q 457 -208 457 -244 q 492 -136 457 -161 q 469 -112 478 -125 q 461 -81 461 -99 q 476 -38 461 -51 q 513 -25 490 -25 q 547 -39 532 -25 q 563 -81 563 -53 q 554 -114 563 -100 q 533 -136 551 -118 q 559 -165 550 -149 q 568 -208 568 -182 m 228 -222 l 207 -222 l 207 -275 l 183 -275 l 183 -222 l 118 -222 l 118 -186 l 169 -32 l 193 -32 l 142 -192 l 183 -192 l 183 -140 l 207 -140 l 207 -192 l 228 -192 l 228 -222 m 538 -82 q 513 -57 538 -57 q 486 -82 486 -57 q 494 -106 486 -96 q 513 -119 501 -115 q 529 -105 521 -115 q 538 -82 538 -94 m 544 -206 q 539 -181 544 -192 q 513 -154 533 -171 q 489 -174 494 -167 q 479 -206 479 -186 q 489 -235 479 -225 q 513 -244 499 -244 q 544 -206 544 -244 z "},"T":{"ha":683,"x_min":0,"x_max":642,"o":"m 642 69 l 533 69 l 533 1111 l 642 1111 l 642 69 m 425 69 l 383 69 l 383 1111 l 425 1111 l 425 69 m 342 69 l 233 69 l 233 1111 l 342 1111 l 342 69 m 125 69 l 83 69 l 83 1111 l 125 1111 l 125 69 m 42 69 l 0 69 l 0 1111 l 42 1111 l 42 69 m 568 -115 q 546 -200 568 -154 q 501 -275 533 -226 l 471 -275 q 500 -232 490 -247 q 526 -182 517 -207 l 526 -181 q 506 -187 517 -187 q 468 -165 483 -187 q 453 -110 453 -143 q 469 -50 453 -72 q 513 -28 486 -28 q 553 -51 538 -28 q 568 -115 568 -75 m 228 -222 l 207 -222 l 207 -275 l 183 -275 l 183 -222 l 118 -222 l 118 -186 l 169 -32 l 193 -32 l 142 -192 l 183 -192 l 183 -140 l 207 -140 l 207 -192 l 228 -192 l 228 -222 m 543 -108 q 513 -60 543 -60 q 478 -108 478 -60 q 513 -157 478 -157 q 535 -144 526 -157 q 543 -108 543 -131 z "},"U":{"ha":683,"x_min":0,"x_max":642,"o":"m 642 69 l 600 69 l 600 1111 l 642 1111 l 642 69 m 492 69 l 450 69 l 450 1111 l 492 1111 l 492 69 m 342 69 l 233 69 l 233 1111 l 342 1111 l 342 69 m 192 69 l 150 69 l 150 1111 l 192 1111 l 192 69 m 108 69 l 0 69 l 0 1111 l 108 1111 l 108 69 m 568 -147 q 565 -219 568 -192 q 551 -261 563 -247 q 513 -275 540 -275 q 489 -272 500 -275 q 471 -261 478 -268 q 459 -219 461 -247 q 457 -147 457 -192 q 457 -110 457 -132 q 464 -62 457 -87 q 481 -33 468 -40 q 513 -25 493 -25 q 544 -32 533 -25 q 560 -58 556 -39 q 567 -101 565 -76 q 568 -147 568 -126 m 213 -186 q 178 -261 213 -239 q 125 -275 156 -275 l 118 -275 l 118 -244 l 132 -244 q 173 -231 156 -244 q 190 -185 190 -217 q 177 -147 190 -157 q 149 -139 164 -137 l 118 -143 l 122 -29 l 211 -29 l 211 -61 l 144 -61 l 142 -108 l 149 -108 q 194 -127 176 -108 q 213 -186 213 -146 m 544 -150 l 544 -126 q 544 -99 544 -112 q 542 -83 542 -87 q 513 -57 542 -57 q 496 -57 504 -57 q 481 -83 485 -60 l 479 -150 q 480 -199 479 -172 q 487 -235 481 -225 q 513 -244 493 -244 q 537 -235 532 -244 q 542 -196 542 -226 q 544 -150 543 -165 z "},"V":{"ha":683,"x_min":0,"x_max":575,"o":"m 575 69 l 533 69 l 533 1111 l 575 1111 l 575 69 m 492 69 l 450 69 l 450 1111 l 492 1111 l 492 69 m 408 69 l 300 69 l 300 1111 l 408 1111 l 408 69 m 258 69 l 217 69 l 217 1111 l 258 1111 l 258 69 m 108 69 l 0 69 l 0 1111 l 108 1111 l 108 69 m 547 -275 l 524 -275 l 524 -71 l 479 -125 l 479 -82 l 521 -32 l 547 -32 l 547 -275 m 225 -186 q 203 -251 225 -228 q 136 -275 181 -275 l 129 -275 l 129 -244 l 143 -244 q 184 -231 167 -244 q 201 -185 201 -217 q 188 -147 201 -157 q 158 -139 174 -137 l 129 -143 l 135 -29 l 221 -29 l 221 -61 l 156 -61 l 153 -108 l 158 -108 q 206 -127 188 -108 q 225 -186 225 -146 z "},"W":{"ha":683,"x_min":0,"x_max":575,"o":"m 575 69 l 533 69 l 533 1111 l 575 1111 l 575 69 m 492 69 l 450 69 l 450 1111 l 492 1111 l 492 69 m 408 69 l 300 69 l 300 1111 l 408 1111 l 408 69 m 192 69 l 150 69 l 150 1111 l 192 1111 l 192 69 m 108 69 l 0 69 l 0 1111 l 108 1111 l 108 69 m 563 -94 q 554 -135 563 -118 q 517 -178 546 -153 q 493 -203 500 -192 q 482 -240 482 -219 l 558 -243 l 558 -275 l 458 -275 l 458 -257 q 469 -194 458 -217 q 506 -147 479 -172 q 528 -124 518 -137 q 538 -96 538 -111 q 531 -71 538 -82 q 513 -60 524 -60 q 488 -67 501 -60 q 461 -85 474 -75 l 461 -49 q 507 -28 482 -28 q 563 -94 563 -28 m 225 -186 q 203 -251 225 -228 q 136 -275 181 -275 l 129 -275 l 129 -244 l 143 -244 q 184 -231 167 -244 q 201 -185 201 -217 q 188 -147 201 -157 q 158 -139 174 -137 l 129 -143 l 135 -29 l 221 -29 l 221 -61 l 156 -61 l 153 -108 l 158 -108 q 206 -127 188 -108 q 225 -186 225 -146 z "},"X":{"ha":683,"x_min":0,"x_max":642,"o":"m 642 69 l 600 69 l 600 1111 l 642 1111 l 642 69 m 558 69 l 517 69 l 517 1111 l 558 1111 l 558 69 m 475 69 l 367 69 l 367 1111 l 475 1111 l 475 69 m 258 69 l 217 69 l 217 1111 l 258 1111 l 258 69 m 108 69 l 0 69 l 0 1111 l 108 1111 l 108 69 m 554 -199 q 534 -255 554 -235 q 486 -275 514 -275 q 443 -261 467 -275 l 443 -226 q 486 -244 461 -244 q 517 -233 504 -244 q 529 -196 529 -221 q 492 -151 529 -151 l 471 -151 l 471 -125 l 515 -61 l 443 -61 l 443 -29 l 547 -29 l 547 -64 l 503 -125 q 540 -144 526 -125 q 554 -199 554 -164 m 225 -186 q 203 -251 225 -228 q 136 -275 181 -275 l 129 -275 l 129 -244 l 143 -244 q 184 -231 167 -244 q 201 -185 201 -217 q 188 -147 201 -157 q 158 -139 174 -137 l 129 -143 l 135 -29 l 221 -29 l 221 -61 l 156 -61 l 153 -108 l 158 -108 q 206 -127 188 -108 q 225 -186 225 -146 z "},"Y":{"ha":683,"x_min":0,"x_max":575,"o":"m 575 69 l 533 69 l 533 1111 l 575 1111 l 575 69 m 492 69 l 450 69 l 450 1111 l 492 1111 l 492 69 m 342 69 l 233 69 l 233 1111 l 342 1111 l 342 69 m 192 69 l 150 69 l 150 1111 l 192 1111 l 192 69 m 108 69 l 0 69 l 0 1111 l 108 1111 l 108 69 m 569 -222 l 549 -222 l 549 -275 l 524 -275 l 524 -222 l 460 -222 l 460 -186 l 510 -32 l 535 -32 l 485 -192 l 524 -192 l 524 -140 l 549 -140 l 549 -192 l 569 -192 l 569 -222 m 225 -186 q 203 -251 225 -228 q 136 -275 181 -275 l 129 -275 l 129 -244 l 143 -244 q 184 -231 167 -244 q 201 -185 201 -217 q 188 -147 201 -157 q 158 -139 174 -137 l 129 -143 l 135 -29 l 221 -29 l 221 -61 l 156 -61 l 153 -108 l 158 -108 q 206 -127 188 -108 q 225 -186 225 -146 z "},"Z":{"ha":683,"x_min":0,"x_max":642,"o":"m 642 69 l 600 69 l 600 1111 l 642 1111 l 642 69 m 558 69 l 517 69 l 517 1111 l 558 1111 l 558 69 m 408 69 l 300 69 l 300 1111 l 408 1111 l 408 69 m 258 69 l 217 69 l 217 1111 l 258 1111 l 258 69 m 108 69 l 0 69 l 0 1111 l 108 1111 l 108 69 m 551 -186 q 529 -251 551 -228 q 464 -275 507 -275 l 457 -275 l 457 -244 l 471 -244 q 512 -231 494 -244 q 529 -185 529 -217 q 515 -147 529 -157 q 486 -139 501 -137 l 457 -143 l 461 -29 l 549 -29 l 549 -61 l 485 -61 l 481 -108 l 486 -108 q 533 -126 515 -108 q 551 -186 551 -144 m 225 -186 q 203 -251 225 -228 q 136 -275 181 -275 l 129 -275 l 129 -244 l 143 -244 q 184 -231 167 -244 q 201 -185 201 -217 q 188 -147 201 -157 q 158 -139 174 -137 l 129 -143 l 135 -29 l 221 -29 l 221 -61 l 156 -61 l 153 -108 l 158 -108 q 206 -127 188 -108 q 225 -186 225 -146 z "},"[":{"ha":683,"x_min":0,"x_max":642,"o":"m 642 69 l 600 69 l 600 1111 l 642 1111 l 642 69 m 558 69 l 517 69 l 517 1111 l 558 1111 l 558 69 m 408 69 l 300 69 l 300 1111 l 408 1111 l 408 69 m 192 69 l 150 69 l 150 1111 l 192 1111 l 192 69 m 108 69 l 0 69 l 0 1111 l 108 1111 l 108 69 m 568 -196 q 553 -254 568 -233 q 513 -275 538 -275 q 454 -193 454 -275 q 458 -143 454 -162 q 478 -101 463 -124 l 519 -29 l 550 -29 l 506 -101 l 493 -122 q 515 -117 503 -117 q 553 -140 539 -117 q 568 -196 568 -162 m 225 -186 q 203 -251 225 -228 q 136 -275 181 -275 l 129 -275 l 129 -244 l 143 -244 q 184 -231 167 -244 q 201 -185 201 -217 q 188 -147 201 -157 q 158 -139 174 -137 l 129 -143 l 135 -29 l 221 -29 l 221 -61 l 156 -61 l 153 -108 l 158 -108 q 206 -127 188 -108 q 225 -186 225 -146 m 543 -196 q 510 -147 543 -147 q 488 -161 497 -147 q 478 -194 478 -175 q 486 -231 478 -218 q 510 -244 494 -244 q 543 -196 543 -244 z "},"\\":{"ha":683,"x_min":0,"x_max":575,"o":"m 575 69 l 533 69 l 533 1111 l 575 1111 l 575 69 m 425 69 l 383 69 l 383 1111 l 425 1111 l 425 69 m 342 69 l 233 69 l 233 1111 l 342 1111 l 342 69 m 192 69 l 150 69 l 150 1111 l 192 1111 l 192 69 m 108 69 l 0 69 l 0 1111 l 108 1111 l 108 69 m 561 -74 q 553 -92 556 -86 q 542 -108 546 -104 q 514 -167 522 -146 q 501 -236 501 -200 l 501 -275 l 478 -275 l 478 -236 q 488 -166 478 -199 q 519 -101 499 -133 l 526 -87 q 535 -64 535 -74 l 453 -64 l 453 -32 l 564 -32 l 564 -50 q 561 -74 564 -57 m 225 -186 q 203 -251 225 -228 q 136 -275 181 -275 l 129 -275 l 129 -244 l 143 -244 q 184 -231 167 -244 q 201 -185 201 -217 q 188 -147 201 -157 q 158 -139 174 -137 l 129 -143 l 135 -29 l 221 -29 l 221 -61 l 156 -61 l 153 -108 l 158 -108 q 206 -127 188 -108 q 225 -186 225 -146 z "},"]":{"ha":683,"x_min":0,"x_max":642,"o":"m 642 69 l 600 69 l 600 1111 l 642 1111 l 642 69 m 492 69 l 450 69 l 450 1111 l 492 1111 l 492 69 m 408 69 l 300 69 l 300 1111 l 408 1111 l 408 69 m 258 69 l 217 69 l 217 1111 l 258 1111 l 258 69 m 108 69 l 0 69 l 0 1111 l 108 1111 l 108 69 m 568 -208 q 513 -275 568 -275 q 472 -260 486 -275 q 457 -208 457 -244 q 492 -136 457 -161 q 469 -112 478 -125 q 461 -81 461 -99 q 476 -38 461 -51 q 513 -25 490 -25 q 547 -39 532 -25 q 563 -81 563 -53 q 554 -114 563 -100 q 533 -136 551 -118 q 559 -165 550 -149 q 568 -208 568 -182 m 225 -186 q 203 -251 225 -228 q 136 -275 181 -275 l 129 -275 l 129 -244 l 143 -244 q 184 -231 167 -244 q 201 -185 201 -217 q 188 -147 201 -157 q 158 -139 174 -137 l 129 -143 l 135 -29 l 221 -29 l 221 -61 l 156 -61 l 153 -108 l 158 -108 q 206 -127 188 -108 q 225 -186 225 -146 m 538 -82 q 513 -57 538 -57 q 486 -82 486 -57 q 494 -106 486 -96 q 513 -119 501 -115 q 529 -105 521 -115 q 538 -82 538 -94 m 544 -206 q 539 -181 544 -192 q 513 -154 533 -171 q 489 -174 494 -167 q 479 -206 479 -186 q 489 -235 479 -225 q 513 -244 499 -244 q 544 -206 544 -244 z "},"^":{"ha":683,"x_min":0,"x_max":642,"o":"m 642 69 l 600 69 l 600 1111 l 642 1111 l 642 69 m 492 69 l 450 69 l 450 1111 l 492 1111 l 492 69 m 408 69 l 300 69 l 300 1111 l 408 1111 l 408 69 m 192 69 l 150 69 l 150 1111 l 192 1111 l 192 69 m 108 69 l 0 69 l 0 1111 l 108 1111 l 108 69 m 568 -115 q 546 -200 568 -154 q 501 -275 533 -226 l 471 -275 q 500 -232 490 -247 q 526 -182 517 -207 l 526 -181 q 506 -187 517 -187 q 468 -165 483 -187 q 453 -110 453 -143 q 469 -50 453 -72 q 513 -28 486 -28 q 553 -51 538 -28 q 568 -115 568 -75 m 225 -186 q 203 -251 225 -228 q 136 -275 181 -275 l 129 -275 l 129 -244 l 143 -244 q 184 -231 167 -244 q 201 -185 201 -217 q 188 -147 201 -157 q 158 -139 174 -137 l 129 -143 l 135 -29 l 221 -29 l 221 -61 l 156 -61 l 153 -108 l 158 -108 q 206 -127 188 -108 q 225 -186 225 -146 m 543 -108 q 513 -60 543 -60 q 478 -108 478 -60 q 513 -157 478 -157 q 535 -144 526 -157 q 543 -108 543 -131 z "},"_":{"ha":683,"x_min":0,"x_max":642,"o":"m 642 69 l 600 69 l 600 1111 l 642 1111 l 642 69 m 492 69 l 450 69 l 450 1111 l 492 1111 l 492 69 m 342 69 l 233 69 l 233 1111 l 342 1111 l 342 69 m 192 69 l 83 69 l 83 1111 l 192 1111 l 192 69 m 42 69 l 0 69 l 0 1111 l 42 1111 l 42 69 m 568 -147 q 565 -219 568 -192 q 551 -261 563 -247 q 513 -275 540 -275 q 489 -272 500 -275 q 471 -261 478 -268 q 459 -219 461 -247 q 457 -147 457 -192 q 457 -110 457 -132 q 464 -62 457 -87 q 481 -33 468 -40 q 513 -25 493 -25 q 544 -32 533 -25 q 560 -58 556 -39 q 567 -101 565 -76 q 568 -147 568 -126 m 226 -196 q 171 -275 226 -275 q 114 -193 114 -275 q 136 -101 114 -142 l 179 -29 l 211 -29 q 188 -61 199 -46 q 165 -101 178 -76 l 153 -122 q 176 -117 163 -117 q 212 -140 197 -117 q 226 -196 226 -162 m 544 -150 l 544 -126 q 544 -99 544 -112 q 542 -83 542 -87 q 513 -57 542 -57 q 496 -57 504 -57 q 481 -83 485 -60 l 479 -150 q 480 -199 479 -172 q 487 -235 481 -225 q 513 -244 493 -244 q 537 -235 532 -244 q 542 -196 542 -226 q 544 -150 543 -165 m 204 -196 q 169 -147 204 -147 q 146 -160 154 -147 q 138 -194 138 -174 q 169 -244 138 -244 q 204 -196 204 -244 z "},"`":{"ha":683,"x_min":0,"x_max":575,"o":"m 575 69 l 533 69 l 533 1111 l 575 1111 l 575 69 m 492 69 l 450 69 l 450 1111 l 492 1111 l 492 69 m 408 69 l 300 69 l 300 1111 l 408 1111 l 408 69 m 258 69 l 150 69 l 150 1111 l 258 1111 l 258 69 m 42 69 l 0 69 l 0 1111 l 42 1111 l 42 69 m 551 -275 l 528 -275 l 528 -71 l 485 -125 l 485 -82 l 526 -32 l 551 -32 l 551 -275 m 226 -196 q 171 -275 226 -275 q 114 -193 114 -275 q 136 -101 114 -142 l 179 -29 l 211 -29 q 188 -61 199 -46 q 165 -101 178 -76 l 153 -122 q 176 -117 163 -117 q 212 -140 197 -117 q 226 -196 226 -162 m 204 -196 q 169 -147 204 -147 q 146 -160 154 -147 q 138 -194 138 -174 q 169 -244 138 -244 q 204 -196 204 -244 z "},"a":{"ha":683,"x_min":0,"x_max":575,"o":"m 575 69 l 533 69 l 533 1111 l 575 1111 l 575 69 m 492 69 l 450 69 l 450 1111 l 492 1111 l 492 69 m 408 69 l 300 69 l 300 1111 l 408 1111 l 408 69 m 192 69 l 83 69 l 83 1111 l 192 1111 l 192 69 m 42 69 l 0 69 l 0 1111 l 42 1111 l 42 69 m 563 -94 q 554 -135 563 -118 q 517 -178 546 -153 q 493 -203 500 -192 q 482 -240 482 -219 l 558 -243 l 558 -275 l 458 -275 l 458 -257 q 469 -194 458 -217 q 506 -147 479 -172 q 528 -124 518 -137 q 538 -96 538 -111 q 531 -71 538 -82 q 513 -60 524 -60 q 488 -67 501 -60 q 461 -85 474 -75 l 461 -49 q 507 -28 482 -28 q 563 -94 563 -28 m 228 -196 q 213 -254 228 -233 q 172 -275 197 -275 q 115 -193 115 -275 q 138 -101 115 -139 l 181 -29 l 211 -29 q 167 -101 189 -65 l 156 -122 q 176 -117 165 -117 q 213 -140 199 -117 q 228 -196 228 -162 m 204 -196 q 171 -147 204 -147 q 147 -160 156 -147 q 139 -194 139 -174 q 171 -244 139 -244 q 204 -196 204 -244 z "},"b":{"ha":683,"x_min":0,"x_max":642,"o":"m 642 69 l 600 69 l 600 1111 l 642 1111 l 642 69 m 558 69 l 517 69 l 517 1111 l 558 1111 l 558 69 m 475 69 l 367 69 l 367 1111 l 475 1111 l 475 69 m 258 69 l 150 69 l 150 1111 l 258 1111 l 258 69 m 42 69 l 0 69 l 0 1111 l 42 1111 l 42 69 m 575 -199 q 555 -255 575 -235 q 507 -275 535 -275 q 464 -261 488 -275 l 464 -226 q 507 -244 482 -244 q 538 -233 525 -244 q 550 -196 550 -221 q 513 -151 550 -151 l 492 -151 l 492 -125 l 536 -61 l 464 -61 l 464 -29 l 568 -29 l 568 -64 l 524 -125 q 561 -144 547 -125 q 575 -199 575 -164 m 226 -196 q 171 -275 226 -275 q 114 -193 114 -275 q 136 -101 114 -142 l 179 -29 l 211 -29 q 188 -61 199 -46 q 165 -101 178 -76 l 153 -122 q 176 -117 163 -117 q 212 -140 197 -117 q 226 -196 226 -162 m 204 -196 q 169 -147 204 -147 q 146 -160 154 -147 q 138 -194 138 -174 q 169 -244 138 -244 q 204 -196 204 -244 z "},"c":{"ha":683,"x_min":0,"x_max":575,"o":"m 575 69 l 533 69 l 533 1111 l 575 1111 l 575 69 m 492 69 l 450 69 l 450 1111 l 492 1111 l 492 69 m 342 69 l 233 69 l 233 1111 l 342 1111 l 342 69 m 192 69 l 83 69 l 83 1111 l 192 1111 l 192 69 m 42 69 l 0 69 l 0 1111 l 42 1111 l 42 69 m 569 -222 l 549 -222 l 549 -275 l 524 -275 l 524 -222 l 460 -222 l 460 -186 l 510 -32 l 535 -32 l 485 -192 l 524 -192 l 524 -140 l 549 -140 l 549 -192 l 569 -192 l 569 -222 m 228 -196 q 213 -254 228 -233 q 172 -275 197 -275 q 115 -193 115 -275 q 138 -101 115 -139 l 181 -29 l 211 -29 q 167 -101 189 -65 l 156 -122 q 176 -117 165 -117 q 213 -140 199 -117 q 228 -196 228 -162 m 204 -196 q 171 -147 204 -147 q 147 -160 156 -147 q 139 -194 139 -174 q 171 -244 139 -244 q 204 -196 204 -244 z "},"d":{"ha":683,"x_min":0,"x_max":642,"o":"m 642 69 l 600 69 l 600 1111 l 642 1111 l 642 69 m 558 69 l 517 69 l 517 1111 l 558 1111 l 558 69 m 408 69 l 300 69 l 300 1111 l 408 1111 l 408 69 m 258 69 l 150 69 l 150 1111 l 258 1111 l 258 69 m 42 69 l 0 69 l 0 1111 l 42 1111 l 42 69 m 556 -186 q 521 -261 556 -239 q 468 -275 499 -275 l 461 -275 l 461 -244 l 475 -244 q 516 -231 499 -244 q 533 -185 533 -217 q 520 -147 533 -157 q 492 -139 507 -137 l 461 -143 l 465 -29 l 554 -29 l 554 -61 l 488 -61 l 485 -108 l 492 -108 q 538 -127 519 -108 q 556 -186 556 -146 m 226 -196 q 171 -275 226 -275 q 114 -193 114 -275 q 136 -101 114 -142 l 179 -29 l 211 -29 q 188 -61 199 -46 q 165 -101 178 -76 l 153 -122 q 176 -117 163 -117 q 212 -140 197 -117 q 226 -196 226 -162 m 204 -196 q 169 -147 204 -147 q 146 -160 154 -147 q 138 -194 138 -174 q 169 -244 138 -244 q 204 -196 204 -244 z "},"e":{"ha":683,"x_min":0,"x_max":642,"o":"m 642 69 l 600 69 l 600 1111 l 642 1111 l 642 69 m 558 69 l 517 69 l 517 1111 l 558 1111 l 558 69 m 408 69 l 300 69 l 300 1111 l 408 1111 l 408 69 m 192 69 l 83 69 l 83 1111 l 192 1111 l 192 69 m 42 69 l 0 69 l 0 1111 l 42 1111 l 42 69 m 564 -196 q 549 -254 564 -233 q 508 -275 533 -275 q 451 -193 451 -275 q 474 -101 451 -139 l 517 -29 l 547 -29 q 503 -101 525 -65 l 492 -122 q 513 -117 501 -117 q 549 -140 535 -117 q 564 -196 564 -162 m 226 -196 q 171 -275 226 -275 q 114 -193 114 -275 q 136 -101 114 -142 l 179 -29 l 211 -29 q 188 -61 199 -46 q 165 -101 178 -76 l 153 -122 q 176 -117 163 -117 q 212 -140 197 -117 q 226 -196 226 -162 m 540 -196 q 507 -147 540 -147 q 483 -160 492 -147 q 475 -194 475 -174 q 507 -244 475 -244 q 540 -196 540 -244 m 204 -196 q 169 -147 204 -147 q 146 -160 154 -147 q 138 -194 138 -174 q 169 -244 138 -244 q 204 -196 204 -244 z "},"f":{"ha":683,"x_min":0,"x_max":575,"o":"m 575 69 l 533 69 l 533 1111 l 575 1111 l 575 69 m 425 69 l 383 69 l 383 1111 l 425 1111 l 425 69 m 342 69 l 233 69 l 233 1111 l 342 1111 l 342 69 m 192 69 l 83 69 l 83 1111 l 192 1111 l 192 69 m 42 69 l 0 69 l 0 1111 l 42 1111 l 42 69 m 561 -74 q 553 -93 558 -83 q 543 -108 549 -103 q 521 -151 531 -131 q 503 -236 503 -190 l 503 -275 l 478 -275 l 478 -236 q 488 -167 478 -197 q 519 -101 499 -136 l 528 -87 q 536 -64 536 -76 l 454 -64 l 454 -32 l 565 -32 q 561 -74 565 -61 m 228 -196 q 213 -254 228 -233 q 172 -275 197 -275 q 115 -193 115 -275 q 138 -101 115 -139 l 181 -29 l 211 -29 q 167 -101 189 -65 l 156 -122 q 176 -117 165 -117 q 213 -140 199 -117 q 228 -196 228 -162 m 204 -196 q 171 -147 204 -147 q 147 -160 156 -147 q 139 -194 139 -174 q 171 -244 139 -244 q 204 -196 204 -244 z "},"g":{"ha":683,"x_min":0,"x_max":642,"o":"m 642 69 l 600 69 l 600 1111 l 642 1111 l 642 69 m 492 69 l 450 69 l 450 1111 l 492 1111 l 492 69 m 408 69 l 300 69 l 300 1111 l 408 1111 l 408 69 m 258 69 l 150 69 l 150 1111 l 258 1111 l 258 69 m 42 69 l 0 69 l 0 1111 l 42 1111 l 42 69 m 568 -208 q 513 -275 568 -275 q 472 -260 486 -275 q 457 -208 457 -244 q 492 -136 457 -161 q 469 -112 478 -125 q 461 -81 461 -99 q 476 -38 461 -51 q 513 -25 490 -25 q 547 -39 532 -25 q 563 -81 563 -53 q 554 -114 563 -100 q 533 -136 551 -118 q 559 -165 550 -149 q 568 -208 568 -182 m 226 -196 q 171 -275 226 -275 q 114 -193 114 -275 q 136 -101 114 -142 l 179 -29 l 211 -29 q 188 -61 199 -46 q 165 -101 178 -76 l 153 -122 q 176 -117 163 -117 q 212 -140 197 -117 q 226 -196 226 -162 m 538 -82 q 513 -57 538 -57 q 486 -82 486 -57 q 494 -106 486 -96 q 513 -119 501 -115 q 529 -105 521 -115 q 538 -82 538 -94 m 544 -206 q 539 -181 544 -192 q 513 -154 533 -171 q 489 -174 494 -167 q 479 -206 479 -186 q 489 -235 479 -225 q 513 -244 499 -244 q 544 -206 544 -244 m 204 -196 q 169 -147 204 -147 q 146 -160 154 -147 q 138 -194 138 -174 q 169 -244 138 -244 q 204 -196 204 -244 z "},"h":{"ha":683,"x_min":0,"x_max":642,"o":"m 642 69 l 600 69 l 600 1111 l 642 1111 l 642 69 m 492 69 l 450 69 l 450 1111 l 492 1111 l 492 69 m 408 69 l 300 69 l 300 1111 l 408 1111 l 408 69 m 192 69 l 83 69 l 83 1111 l 192 1111 l 192 69 m 42 69 l 0 69 l 0 1111 l 42 1111 l 42 69 m 568 -115 q 546 -200 568 -154 q 501 -275 533 -226 l 471 -275 q 500 -232 490 -247 q 526 -182 517 -207 l 526 -181 q 506 -187 517 -187 q 468 -165 483 -187 q 453 -110 453 -143 q 469 -50 453 -72 q 513 -28 486 -28 q 553 -51 538 -28 q 568 -115 568 -75 m 226 -196 q 171 -275 226 -275 q 114 -193 114 -275 q 136 -101 114 -142 l 179 -29 l 211 -29 q 188 -61 199 -46 q 165 -101 178 -76 l 153 -122 q 176 -117 163 -117 q 212 -140 197 -117 q 226 -196 226 -162 m 543 -108 q 513 -60 543 -60 q 478 -108 478 -60 q 513 -157 478 -157 q 535 -144 526 -157 q 543 -108 543 -131 m 204 -196 q 169 -147 204 -147 q 146 -160 154 -147 q 138 -194 138 -174 q 169 -244 138 -244 q 204 -196 204 -244 z "},"i":{"ha":683,"x_min":0,"x_max":642,"o":"m 642 69 l 533 69 l 533 1111 l 642 1111 l 642 69 m 425 69 l 317 69 l 317 1111 l 425 1111 l 425 69 m 208 69 l 167 69 l 167 1111 l 208 1111 l 208 69 m 125 69 l 83 69 l 83 1111 l 125 1111 l 125 69 m 42 69 l 0 69 l 0 1111 l 42 1111 l 42 69 m 568 -147 q 565 -219 568 -192 q 551 -261 563 -247 q 513 -275 540 -275 q 489 -272 500 -275 q 471 -261 478 -268 q 459 -219 461 -247 q 457 -147 457 -192 q 457 -110 457 -132 q 464 -62 457 -87 q 481 -33 468 -40 q 513 -25 493 -25 q 544 -32 533 -25 q 560 -58 556 -39 q 567 -101 565 -76 q 568 -147 568 -126 m 219 -74 q 201 -108 217 -93 q 172 -170 182 -142 q 163 -236 163 -199 l 163 -275 l 136 -275 l 136 -236 q 147 -167 136 -200 q 178 -101 158 -135 l 186 -87 q 194 -64 194 -74 l 114 -64 l 114 -32 l 225 -32 q 219 -74 225 -61 m 544 -150 l 544 -126 q 544 -99 544 -112 q 542 -83 542 -87 q 513 -57 542 -57 q 496 -57 504 -57 q 481 -83 485 -60 l 479 -150 q 480 -199 479 -172 q 487 -235 481 -225 q 513 -244 493 -244 q 537 -235 532 -244 q 542 -196 542 -226 q 544 -150 543 -165 z "},"j":{"ha":683,"x_min":0,"x_max":575,"o":"m 575 69 l 467 69 l 467 1111 l 575 1111 l 575 69 m 425 69 l 317 69 l 317 1111 l 425 1111 l 425 69 m 275 69 l 233 69 l 233 1111 l 275 1111 l 275 69 m 192 69 l 150 69 l 150 1111 l 192 1111 l 192 69 m 42 69 l 0 69 l 0 1111 l 42 1111 l 42 69 m 551 -275 l 528 -275 l 528 -71 l 485 -125 l 485 -82 l 526 -32 l 551 -32 l 551 -275 m 222 -74 q 215 -93 219 -83 q 204 -108 210 -103 q 182 -151 192 -131 q 164 -236 164 -190 l 164 -275 l 139 -275 l 139 -236 q 149 -167 139 -197 q 181 -101 160 -136 l 190 -87 q 194 -76 192 -82 q 197 -64 197 -71 l 115 -64 l 115 -32 l 226 -32 q 222 -74 226 -61 z "},"k":{"ha":683,"x_min":0,"x_max":575,"o":"m 575 69 l 467 69 l 467 1111 l 575 1111 l 575 69 m 425 69 l 317 69 l 317 1111 l 425 1111 l 425 69 m 275 69 l 233 69 l 233 1111 l 275 1111 l 275 69 m 125 69 l 83 69 l 83 1111 l 125 1111 l 125 69 m 42 69 l 0 69 l 0 1111 l 42 1111 l 42 69 m 563 -94 q 554 -135 563 -118 q 517 -178 546 -153 q 493 -203 500 -192 q 482 -240 482 -219 l 558 -243 l 558 -275 l 458 -275 l 458 -257 q 469 -194 458 -217 q 506 -147 479 -172 q 528 -124 518 -137 q 538 -96 538 -111 q 531 -71 538 -82 q 513 -60 524 -60 q 488 -67 501 -60 q 461 -85 474 -75 l 461 -49 q 507 -28 482 -28 q 563 -94 563 -28 m 221 -74 q 213 -93 218 -82 q 204 -108 208 -104 q 181 -151 189 -133 q 163 -236 163 -189 l 163 -275 l 138 -275 l 138 -236 q 148 -167 138 -197 q 179 -101 158 -136 l 188 -87 q 197 -64 197 -71 l 114 -64 l 114 -32 l 225 -32 q 221 -74 225 -61 z "},"l":{"ha":683,"x_min":0,"x_max":642,"o":"m 642 69 l 533 69 l 533 1111 l 642 1111 l 642 69 m 492 69 l 383 69 l 383 1111 l 492 1111 l 492 69 m 342 69 l 300 69 l 300 1111 l 342 1111 l 342 69 m 192 69 l 150 69 l 150 1111 l 192 1111 l 192 69 m 42 69 l 0 69 l 0 1111 l 42 1111 l 42 69 m 575 -199 q 555 -255 575 -235 q 507 -275 535 -275 q 464 -261 488 -275 l 464 -226 q 507 -244 482 -244 q 538 -233 525 -244 q 550 -196 550 -221 q 513 -151 550 -151 l 492 -151 l 492 -125 l 536 -61 l 464 -61 l 464 -29 l 568 -29 l 568 -64 l 524 -125 q 561 -144 547 -125 q 575 -199 575 -164 m 215 -74 q 208 -93 213 -83 q 197 -108 203 -103 q 175 -151 185 -131 q 157 -236 157 -190 l 157 -275 l 132 -275 l 132 -236 q 142 -167 132 -197 q 174 -101 153 -136 l 183 -87 q 188 -76 185 -82 q 190 -64 190 -71 l 108 -64 l 108 -32 l 219 -32 q 215 -74 219 -61 z "},"m":{"ha":683,"x_min":0,"x_max":575,"o":"m 575 69 l 467 69 l 467 1111 l 575 1111 l 575 69 m 425 69 l 317 69 l 317 1111 l 425 1111 l 425 69 m 208 69 l 167 69 l 167 1111 l 208 1111 l 208 69 m 125 69 l 83 69 l 83 1111 l 125 1111 l 125 69 m 42 69 l 0 69 l 0 1111 l 42 1111 l 42 69 m 569 -222 l 549 -222 l 549 -275 l 524 -275 l 524 -222 l 460 -222 l 460 -186 l 510 -32 l 535 -32 l 485 -192 l 524 -192 l 524 -140 l 549 -140 l 549 -192 l 569 -192 l 569 -222 m 218 -74 q 210 -93 215 -83 q 200 -108 206 -103 q 178 -151 188 -131 q 160 -236 160 -190 l 160 -275 l 135 -275 l 135 -236 q 145 -167 135 -197 q 176 -101 156 -136 l 185 -87 q 193 -64 193 -76 l 111 -64 l 111 -32 l 222 -32 q 218 -74 222 -61 z "},"n":{"ha":683,"x_min":0,"x_max":642,"o":"m 642 69 l 533 69 l 533 1111 l 642 1111 l 642 69 m 492 69 l 383 69 l 383 1111 l 492 1111 l 492 69 m 275 69 l 233 69 l 233 1111 l 275 1111 l 275 69 m 192 69 l 150 69 l 150 1111 l 192 1111 l 192 69 m 42 69 l 0 69 l 0 1111 l 42 1111 l 42 69 m 554 -186 q 532 -251 554 -228 q 467 -275 510 -275 l 460 -275 l 460 -244 l 474 -244 q 515 -231 496 -244 q 533 -185 533 -217 q 519 -147 533 -157 q 489 -139 504 -137 l 460 -143 l 464 -29 l 551 -29 l 551 -61 l 486 -61 l 485 -108 q 535 -127 517 -108 q 554 -186 554 -146 m 219 -74 q 201 -108 217 -93 q 172 -170 182 -142 q 163 -236 163 -199 l 163 -275 l 136 -275 l 136 -236 q 147 -167 136 -200 q 178 -101 158 -135 l 186 -87 q 194 -64 194 -74 l 114 -64 l 114 -32 l 225 -32 q 219 -74 225 -61 z "},"o":{"ha":683,"x_min":0,"x_max":642,"o":"m 642 69 l 533 69 l 533 1111 l 642 1111 l 642 69 m 492 69 l 383 69 l 383 1111 l 492 1111 l 492 69 m 275 69 l 233 69 l 233 1111 l 275 1111 l 275 69 m 125 69 l 83 69 l 83 1111 l 125 1111 l 125 69 m 42 69 l 0 69 l 0 1111 l 42 1111 l 42 69 m 568 -196 q 553 -254 568 -233 q 513 -275 538 -275 q 454 -193 454 -275 q 458 -143 454 -162 q 478 -101 463 -124 l 519 -29 l 550 -29 l 506 -101 l 493 -122 q 515 -117 503 -117 q 553 -140 539 -117 q 568 -196 568 -162 m 221 -74 q 213 -93 218 -82 q 204 -108 208 -104 q 181 -151 189 -133 q 163 -236 163 -189 l 163 -275 l 138 -275 l 138 -236 q 148 -167 138 -197 q 179 -101 158 -136 l 188 -87 q 197 -64 197 -71 l 114 -64 l 114 -32 l 225 -32 q 221 -74 225 -61 m 543 -196 q 510 -147 543 -147 q 488 -161 497 -147 q 478 -194 478 -175 q 486 -231 478 -218 q 510 -244 494 -244 q 543 -196 543 -244 z "},"p":{"ha":683,"x_min":0,"x_max":575,"o":"m 575 69 l 467 69 l 467 1111 l 575 1111 l 575 69 m 358 69 l 250 69 l 250 1111 l 358 1111 l 358 69 m 208 69 l 167 69 l 167 1111 l 208 1111 l 208 69 m 125 69 l 83 69 l 83 1111 l 125 1111 l 125 69 m 42 69 l 0 69 l 0 1111 l 42 1111 l 42 69 m 563 -74 q 544 -108 560 -93 q 515 -170 525 -142 q 506 -236 506 -199 l 506 -275 l 479 -275 l 479 -236 q 490 -167 479 -200 q 521 -101 501 -135 l 529 -87 q 538 -64 538 -74 l 457 -64 l 457 -32 l 568 -32 q 563 -74 568 -61 m 221 -74 q 213 -93 218 -82 q 204 -108 208 -104 q 181 -151 189 -133 q 163 -236 163 -189 l 163 -275 l 138 -275 l 138 -236 q 148 -167 138 -197 q 179 -101 158 -136 l 188 -87 q 197 -64 197 -71 l 114 -64 l 114 -32 l 225 -32 q 221 -74 225 -61 z "},"q":{"ha":683,"x_min":0,"x_max":642,"o":"m 642 69 l 533 69 l 533 1111 l 642 1111 l 642 69 m 425 69 l 317 69 l 317 1111 l 425 1111 l 425 69 m 275 69 l 233 69 l 233 1111 l 275 1111 l 275 69 m 192 69 l 150 69 l 150 1111 l 192 1111 l 192 69 m 42 69 l 0 69 l 0 1111 l 42 1111 l 42 69 m 568 -208 q 513 -275 568 -275 q 472 -260 486 -275 q 457 -208 457 -244 q 492 -136 457 -161 q 469 -112 478 -125 q 461 -81 461 -99 q 476 -38 461 -51 q 513 -25 490 -25 q 547 -39 532 -25 q 563 -81 563 -53 q 554 -114 563 -100 q 533 -136 551 -118 q 559 -165 550 -149 q 568 -208 568 -182 m 219 -74 q 201 -108 217 -93 q 172 -170 182 -142 q 163 -236 163 -199 l 163 -275 l 136 -275 l 136 -236 q 147 -167 136 -200 q 178 -101 158 -135 l 186 -87 q 194 -64 194 -74 l 114 -64 l 114 -32 l 225 -32 q 219 -74 225 -61 m 538 -82 q 513 -57 538 -57 q 486 -82 486 -57 q 494 -106 486 -96 q 513 -119 501 -115 q 529 -105 521 -115 q 538 -82 538 -94 m 544 -206 q 539 -181 544 -192 q 513 -154 533 -171 q 489 -174 494 -167 q 479 -206 479 -186 q 489 -235 479 -225 q 513 -244 499 -244 q 544 -206 544 -244 z "},"r":{"ha":683,"x_min":0,"x_max":642,"o":"m 642 69 l 533 69 l 533 1111 l 642 1111 l 642 69 m 425 69 l 317 69 l 317 1111 l 425 1111 l 425 69 m 275 69 l 233 69 l 233 1111 l 275 1111 l 275 69 m 125 69 l 83 69 l 83 1111 l 125 1111 l 125 69 m 42 69 l 0 69 l 0 1111 l 42 1111 l 42 69 m 569 -115 q 549 -200 569 -154 q 506 -275 538 -224 l 472 -275 q 501 -232 489 -251 q 529 -182 519 -204 l 528 -181 q 508 -187 521 -187 q 471 -165 485 -187 q 457 -110 457 -143 q 472 -50 457 -72 q 514 -28 488 -28 q 569 -115 569 -28 m 221 -74 q 213 -93 218 -82 q 204 -108 208 -104 q 181 -151 189 -133 q 163 -236 163 -189 l 163 -275 l 138 -275 l 138 -236 q 148 -167 138 -197 q 179 -101 158 -136 l 188 -87 q 197 -64 197 -71 l 114 -64 l 114 -32 l 225 -32 q 221 -74 225 -61 m 547 -108 q 514 -60 547 -60 q 479 -108 479 -60 q 514 -157 479 -157 q 538 -143 528 -157 q 547 -108 547 -129 z "},"s":{"ha":683,"x_min":0,"x_max":642,"o":"m 642 69 l 600 69 l 600 1111 l 642 1111 l 642 69 m 492 69 l 383 69 l 383 1111 l 492 1111 l 492 69 m 275 69 l 233 69 l 233 1111 l 275 1111 l 275 69 m 192 69 l 150 69 l 150 1111 l 192 1111 l 192 69 m 108 69 l 0 69 l 0 1111 l 108 1111 l 108 69 m 568 -147 q 565 -219 568 -192 q 551 -261 563 -247 q 513 -275 540 -275 q 489 -272 500 -275 q 471 -261 478 -268 q 459 -219 461 -247 q 457 -147 457 -192 q 457 -110 457 -132 q 464 -62 457 -87 q 481 -33 468 -40 q 513 -25 493 -25 q 544 -32 533 -25 q 560 -58 556 -39 q 567 -101 565 -76 q 568 -147 568 -126 m 228 -208 q 171 -275 228 -275 q 131 -260 146 -275 q 115 -208 115 -244 q 150 -136 115 -161 q 128 -112 135 -122 q 121 -81 121 -101 q 136 -39 121 -53 q 171 -25 151 -25 q 208 -38 193 -25 q 222 -81 222 -51 q 214 -114 222 -100 q 193 -136 211 -118 q 219 -165 210 -149 q 228 -208 228 -182 m 544 -150 l 544 -126 q 544 -99 544 -112 q 542 -83 542 -87 q 513 -57 542 -57 q 496 -57 504 -57 q 481 -83 485 -60 l 479 -150 q 480 -199 479 -172 q 487 -235 481 -225 q 513 -244 493 -244 q 537 -235 532 -244 q 542 -196 542 -226 q 544 -150 543 -165 m 197 -82 q 171 -57 197 -57 q 146 -82 146 -57 q 153 -105 146 -96 q 171 -119 160 -114 q 197 -82 197 -111 m 204 -206 q 197 -178 204 -187 q 171 -154 189 -168 q 149 -174 151 -169 q 139 -206 139 -186 q 149 -235 139 -225 q 171 -244 158 -244 q 194 -235 185 -244 q 204 -206 204 -225 z "},"t":{"ha":683,"x_min":0,"x_max":575,"o":"m 575 69 l 533 69 l 533 1111 l 575 1111 l 575 69 m 492 69 l 383 69 l 383 1111 l 492 1111 l 492 69 m 342 69 l 300 69 l 300 1111 l 342 1111 l 342 69 m 258 69 l 217 69 l 217 1111 l 258 1111 l 258 69 m 108 69 l 0 69 l 0 1111 l 108 1111 l 108 69 m 549 -275 l 526 -275 l 526 -71 l 481 -125 l 481 -82 l 522 -32 l 549 -32 l 549 -275 m 228 -208 q 171 -275 228 -275 q 131 -260 146 -275 q 115 -208 115 -244 q 150 -136 115 -161 q 128 -112 135 -122 q 121 -81 121 -101 q 136 -39 121 -53 q 171 -25 151 -25 q 208 -38 193 -25 q 222 -81 222 -51 q 214 -114 222 -100 q 193 -136 211 -118 q 219 -165 210 -149 q 228 -208 228 -182 m 197 -82 q 171 -57 197 -57 q 146 -82 146 -57 q 153 -105 146 -96 q 171 -119 160 -114 q 197 -82 197 -111 m 204 -206 q 197 -178 204 -187 q 171 -154 189 -168 q 149 -174 151 -169 q 139 -206 139 -186 q 149 -235 139 -225 q 171 -244 158 -244 q 194 -235 185 -244 q 204 -206 204 -225 z "},"u":{"ha":683,"x_min":0,"x_max":575,"o":"m 575 69 l 533 69 l 533 1111 l 575 1111 l 575 69 m 492 69 l 383 69 l 383 1111 l 492 1111 l 492 69 m 342 69 l 300 69 l 300 1111 l 342 1111 l 342 69 m 192 69 l 150 69 l 150 1111 l 192 1111 l 192 69 m 108 69 l 0 69 l 0 1111 l 108 1111 l 108 69 m 564 -94 q 550 -144 564 -124 q 519 -178 544 -153 q 494 -206 504 -190 q 485 -240 485 -221 l 561 -243 l 561 -275 l 460 -275 l 460 -257 q 470 -194 460 -217 q 507 -147 481 -172 q 528 -126 521 -135 q 540 -96 540 -111 q 531 -69 540 -78 q 513 -60 521 -60 q 490 -67 501 -60 q 464 -85 478 -74 l 464 -49 q 508 -28 485 -28 q 564 -94 564 -28 m 228 -208 q 171 -275 228 -275 q 131 -260 146 -275 q 115 -208 115 -244 q 150 -136 115 -161 q 128 -112 135 -122 q 121 -81 121 -101 q 136 -39 121 -53 q 171 -25 151 -25 q 208 -38 193 -25 q 222 -81 222 -51 q 214 -114 222 -100 q 193 -136 211 -118 q 219 -165 210 -149 q 228 -208 228 -182 m 197 -82 q 171 -57 197 -57 q 146 -82 146 -57 q 153 -105 146 -96 q 171 -119 160 -114 q 197 -82 197 -111 m 204 -206 q 197 -178 204 -187 q 171 -154 189 -168 q 149 -174 151 -169 q 139 -206 139 -186 q 149 -235 139 -225 q 171 -244 158 -244 q 194 -235 185 -244 q 204 -206 204 -225 z "},"v":{"ha":683,"x_min":0,"x_max":642,"o":"m 642 69 l 600 69 l 600 1111 l 642 1111 l 642 69 m 558 69 l 450 69 l 450 1111 l 558 1111 l 558 69 m 408 69 l 367 69 l 367 1111 l 408 1111 l 408 69 m 258 69 l 217 69 l 217 1111 l 258 1111 l 258 69 m 108 69 l 0 69 l 0 1111 l 108 1111 l 108 69 m 569 -199 q 550 -255 569 -235 q 503 -275 531 -275 q 460 -261 483 -275 l 460 -226 q 503 -244 478 -244 q 534 -233 521 -244 q 547 -196 547 -221 q 535 -163 547 -175 q 507 -151 524 -151 l 488 -151 l 488 -125 l 533 -61 l 460 -61 l 460 -29 l 563 -29 l 563 -64 l 519 -125 q 556 -144 542 -125 q 569 -199 569 -164 m 228 -208 q 171 -275 228 -275 q 131 -260 146 -275 q 115 -208 115 -244 q 150 -136 115 -161 q 128 -112 135 -122 q 121 -81 121 -101 q 136 -39 121 -53 q 171 -25 151 -25 q 208 -38 193 -25 q 222 -81 222 -51 q 214 -114 222 -100 q 193 -136 211 -118 q 219 -165 210 -149 q 228 -208 228 -182 m 197 -82 q 171 -57 197 -57 q 146 -82 146 -57 q 153 -105 146 -96 q 171 -119 160 -114 q 197 -82 197 -111 m 204 -206 q 197 -178 204 -187 q 171 -154 189 -168 q 149 -174 151 -169 q 139 -206 139 -186 q 149 -235 139 -225 q 171 -244 158 -244 q 194 -235 185 -244 q 204 -206 204 -225 z "},"w":{"ha":683,"x_min":0,"x_max":575,"o":"m 575 69 l 533 69 l 533 1111 l 575 1111 l 575 69 m 492 69 l 383 69 l 383 1111 l 492 1111 l 492 69 m 275 69 l 233 69 l 233 1111 l 275 1111 l 275 69 m 192 69 l 150 69 l 150 1111 l 192 1111 l 192 69 m 108 69 l 0 69 l 0 1111 l 108 1111 l 108 69 m 572 -222 l 551 -222 l 551 -275 l 526 -275 l 526 -222 l 464 -222 l 464 -186 l 513 -32 l 538 -32 l 486 -192 l 526 -192 l 526 -140 l 551 -140 l 551 -192 l 572 -192 l 572 -222 m 228 -208 q 171 -275 228 -275 q 131 -260 146 -275 q 115 -208 115 -244 q 150 -136 115 -161 q 128 -112 135 -122 q 121 -81 121 -101 q 136 -39 121 -53 q 171 -25 151 -25 q 208 -38 193 -25 q 222 -81 222 -51 q 214 -114 222 -100 q 193 -136 211 -118 q 219 -165 210 -149 q 228 -208 228 -182 m 197 -82 q 171 -57 197 -57 q 146 -82 146 -57 q 153 -105 146 -96 q 171 -119 160 -114 q 197 -82 197 -111 m 204 -206 q 197 -178 204 -187 q 171 -154 189 -168 q 149 -174 151 -169 q 139 -206 139 -186 q 149 -235 139 -225 q 171 -244 158 -244 q 194 -235 185 -244 q 204 -206 204 -225 z "},"x":{"ha":683,"x_min":0,"x_max":642,"o":"m 642 69 l 600 69 l 600 1111 l 642 1111 l 642 69 m 558 69 l 450 69 l 450 1111 l 558 1111 l 558 69 m 342 69 l 300 69 l 300 1111 l 342 1111 l 342 69 m 258 69 l 217 69 l 217 1111 l 258 1111 l 258 69 m 108 69 l 0 69 l 0 1111 l 108 1111 l 108 69 m 550 -186 q 528 -251 550 -228 q 464 -275 506 -275 l 457 -275 l 457 -244 l 471 -244 q 510 -231 493 -244 q 528 -185 528 -217 q 514 -147 528 -157 q 485 -139 500 -137 l 457 -143 l 460 -29 l 547 -29 l 547 -61 l 482 -61 l 479 -108 l 485 -108 q 532 -126 514 -108 q 550 -186 550 -144 m 228 -208 q 171 -275 228 -275 q 131 -260 146 -275 q 115 -208 115 -244 q 150 -136 115 -161 q 128 -112 135 -122 q 121 -81 121 -101 q 136 -39 121 -53 q 171 -25 151 -25 q 208 -38 193 -25 q 222 -81 222 -51 q 214 -114 222 -100 q 193 -136 211 -118 q 219 -165 210 -149 q 228 -208 228 -182 m 197 -82 q 171 -57 197 -57 q 146 -82 146 -57 q 153 -105 146 -96 q 171 -119 160 -114 q 197 -82 197 -111 m 204 -206 q 197 -178 204 -187 q 171 -154 189 -168 q 149 -174 151 -169 q 139 -206 139 -186 q 149 -235 139 -225 q 171 -244 158 -244 q 194 -235 185 -244 q 204 -206 204 -225 z "},"y":{"ha":683,"x_min":0,"x_max":642,"o":"m 642 69 l 600 69 l 600 1111 l 642 1111 l 642 69 m 558 69 l 450 69 l 450 1111 l 558 1111 l 558 69 m 342 69 l 300 69 l 300 1111 l 342 1111 l 342 69 m 192 69 l 150 69 l 150 1111 l 192 1111 l 192 69 m 108 69 l 0 69 l 0 1111 l 108 1111 l 108 69 m 568 -196 q 553 -254 568 -233 q 513 -275 538 -275 q 454 -193 454 -275 q 458 -143 454 -162 q 478 -101 463 -124 l 519 -29 l 550 -29 l 506 -101 l 493 -122 q 515 -117 503 -117 q 553 -140 539 -117 q 568 -196 568 -162 m 228 -208 q 171 -275 228 -275 q 131 -260 146 -275 q 115 -208 115 -244 q 150 -136 115 -161 q 128 -112 135 -122 q 121 -81 121 -101 q 136 -39 121 -53 q 171 -25 151 -25 q 208 -38 193 -25 q 222 -81 222 -51 q 214 -114 222 -100 q 193 -136 211 -118 q 219 -165 210 -149 q 228 -208 228 -182 m 543 -196 q 510 -147 543 -147 q 488 -161 497 -147 q 478 -194 478 -175 q 486 -231 478 -218 q 510 -244 494 -244 q 543 -196 543 -244 m 197 -82 q 171 -57 197 -57 q 146 -82 146 -57 q 153 -105 146 -96 q 171 -119 160 -114 q 197 -82 197 -111 m 204 -206 q 197 -178 204 -187 q 171 -154 189 -168 q 149 -174 151 -169 q 139 -206 139 -186 q 149 -235 139 -225 q 171 -244 158 -244 q 194 -235 185 -244 q 204 -206 204 -225 z "},"z":{"ha":683,"x_min":0,"x_max":575,"o":"m 575 69 l 533 69 l 533 1111 l 575 1111 l 575 69 m 425 69 l 317 69 l 317 1111 l 425 1111 l 425 69 m 275 69 l 233 69 l 233 1111 l 275 1111 l 275 69 m 192 69 l 150 69 l 150 1111 l 192 1111 l 192 69 m 108 69 l 0 69 l 0 1111 l 108 1111 l 108 69 m 561 -74 q 553 -93 558 -83 q 543 -108 549 -103 q 521 -151 531 -131 q 503 -236 503 -190 l 503 -275 l 478 -275 l 478 -236 q 488 -167 478 -197 q 519 -101 499 -136 l 528 -87 q 536 -64 536 -76 l 454 -64 l 454 -32 l 565 -32 q 561 -74 565 -61 m 228 -208 q 171 -275 228 -275 q 131 -260 146 -275 q 115 -208 115 -244 q 150 -136 115 -161 q 128 -112 135 -122 q 121 -81 121 -101 q 136 -39 121 -53 q 171 -25 151 -25 q 208 -38 193 -25 q 222 -81 222 -51 q 214 -114 222 -100 q 193 -136 211 -118 q 219 -165 210 -149 q 228 -208 228 -182 m 197 -82 q 171 -57 197 -57 q 146 -82 146 -57 q 153 -105 146 -96 q 171 -119 160 -114 q 197 -82 197 -111 m 204 -206 q 197 -178 204 -187 q 171 -154 189 -168 q 149 -174 151 -169 q 139 -206 139 -186 q 149 -235 139 -225 q 171 -244 158 -244 q 194 -235 185 -244 q 204 -206 204 -225 z "},"{":{"ha":683,"x_min":0,"x_max":642,"o":"m 642 69 l 600 69 l 600 1111 l 642 1111 l 642 69 m 492 69 l 383 69 l 383 1111 l 492 1111 l 492 69 m 342 69 l 300 69 l 300 1111 l 342 1111 l 342 69 m 258 69 l 217 69 l 217 1111 l 258 1111 l 258 69 m 108 69 l 0 69 l 0 1111 l 108 1111 l 108 69 m 568 -208 q 513 -275 568 -275 q 472 -260 486 -275 q 457 -208 457 -244 q 492 -136 457 -161 q 469 -112 478 -125 q 461 -81 461 -99 q 476 -38 461 -51 q 513 -25 490 -25 q 547 -39 532 -25 q 563 -81 563 -53 q 554 -114 563 -100 q 533 -136 551 -118 q 559 -165 550 -149 q 568 -208 568 -182 m 228 -208 q 171 -275 228 -275 q 131 -260 146 -275 q 115 -208 115 -244 q 150 -136 115 -161 q 128 -112 135 -122 q 121 -81 121 -101 q 136 -39 121 -53 q 171 -25 151 -25 q 208 -38 193 -25 q 222 -81 222 -51 q 214 -114 222 -100 q 193 -136 211 -118 q 219 -165 210 -149 q 228 -208 228 -182 m 538 -82 q 513 -57 538 -57 q 486 -82 486 -57 q 494 -106 486 -96 q 513 -119 501 -115 q 529 -105 521 -115 q 538 -82 538 -94 m 544 -206 q 539 -181 544 -192 q 513 -154 533 -171 q 489 -174 494 -167 q 479 -206 479 -186 q 489 -235 479 -225 q 513 -244 499 -244 q 544 -206 544 -244 m 197 -82 q 171 -57 197 -57 q 146 -82 146 -57 q 153 -105 146 -96 q 171 -119 160 -114 q 197 -82 197 -111 m 204 -206 q 197 -178 204 -187 q 171 -154 189 -168 q 149 -174 151 -169 q 139 -206 139 -186 q 149 -235 139 -225 q 171 -244 158 -244 q 194 -235 185 -244 q 204 -206 204 -225 z "},"|":{"ha":683,"x_min":0,"x_max":642,"o":"m 642 69 l 600 69 l 600 1111 l 642 1111 l 642 69 m 492 69 l 383 69 l 383 1111 l 492 1111 l 492 69 m 342 69 l 300 69 l 300 1111 l 342 1111 l 342 69 m 192 69 l 150 69 l 150 1111 l 192 1111 l 192 69 m 108 69 l 0 69 l 0 1111 l 108 1111 l 108 69 m 568 -115 q 546 -200 568 -154 q 501 -275 533 -226 l 471 -275 q 500 -232 490 -247 q 526 -182 517 -207 l 526 -181 q 506 -187 517 -187 q 468 -165 483 -187 q 453 -110 453 -143 q 469 -50 453 -72 q 513 -28 486 -28 q 553 -51 538 -28 q 568 -115 568 -75 m 228 -208 q 171 -275 228 -275 q 131 -260 146 -275 q 115 -208 115 -244 q 150 -136 115 -161 q 128 -112 135 -122 q 121 -81 121 -101 q 136 -39 121 -53 q 171 -25 151 -25 q 208 -38 193 -25 q 222 -81 222 -51 q 214 -114 222 -100 q 193 -136 211 -118 q 219 -165 210 -149 q 228 -208 228 -182 m 543 -108 q 513 -60 543 -60 q 478 -108 478 -60 q 513 -157 478 -157 q 535 -144 526 -157 q 543 -108 543 -131 m 197 -82 q 171 -57 197 -57 q 146 -82 146 -57 q 153 -105 146 -96 q 171 -119 160 -114 q 197 -82 197 -111 m 204 -206 q 197 -178 204 -187 q 171 -154 189 -168 q 149 -174 151 -169 q 139 -206 139 -186 q 149 -235 139 -225 q 171 -244 158 -244 q 194 -235 185 -244 q 204 -206 204 -225 z "},"}":{"ha":683,"x_min":0,"x_max":642,"o":"m 642 69 l 600 69 l 600 1111 l 642 1111 l 642 69 m 492 69 l 383 69 l 383 1111 l 492 1111 l 492 69 m 275 69 l 233 69 l 233 1111 l 275 1111 l 275 69 m 192 69 l 83 69 l 83 1111 l 192 1111 l 192 69 m 42 69 l 0 69 l 0 1111 l 42 1111 l 42 69 m 568 -147 q 565 -219 568 -192 q 551 -261 563 -247 q 513 -275 540 -275 q 489 -272 500 -275 q 471 -261 478 -268 q 459 -219 461 -247 q 457 -147 457 -192 q 457 -110 457 -132 q 464 -62 457 -87 q 481 -33 468 -40 q 513 -25 493 -25 q 544 -32 533 -25 q 560 -58 556 -39 q 567 -101 565 -76 q 568 -147 568 -126 m 226 -115 q 206 -200 226 -154 q 163 -275 194 -224 l 129 -275 q 158 -232 146 -251 q 186 -182 176 -204 l 185 -181 q 165 -187 178 -187 q 128 -165 142 -187 q 114 -110 114 -143 q 129 -50 114 -72 q 171 -28 144 -28 q 226 -115 226 -28 m 544 -150 l 544 -126 q 544 -99 544 -112 q 542 -83 542 -87 q 513 -57 542 -57 q 496 -57 504 -57 q 481 -83 485 -60 l 479 -150 q 480 -199 479 -172 q 487 -235 481 -225 q 513 -244 493 -244 q 537 -235 532 -244 q 542 -196 542 -226 q 544 -150 543 -165 m 204 -108 q 171 -60 204 -60 q 136 -108 136 -60 q 171 -157 136 -157 q 194 -143 185 -157 q 204 -108 204 -129 z "},"~":{"ha":683,"x_min":0,"x_max":575,"o":"m 575 69 l 533 69 l 533 1111 l 575 1111 l 575 69 m 492 69 l 383 69 l 383 1111 l 492 1111 l 492 69 m 342 69 l 300 69 l 300 1111 l 342 1111 l 342 69 m 258 69 l 150 69 l 150 1111 l 258 1111 l 258 69 m 42 69 l 0 69 l 0 1111 l 42 1111 l 42 69 m 547 -275 l 524 -275 l 524 -71 l 479 -125 l 479 -82 l 521 -32 l 547 -32 l 547 -275 m 226 -115 q 206 -200 226 -154 q 163 -275 194 -224 l 129 -275 q 158 -232 146 -251 q 186 -182 176 -204 l 185 -181 q 165 -187 178 -187 q 128 -165 142 -187 q 114 -110 114 -143 q 129 -50 114 -72 q 171 -28 144 -28 q 226 -115 226 -28 m 204 -108 q 171 -60 204 -60 q 136 -108 136 -60 q 171 -157 136 -157 q 194 -143 185 -157 q 204 -108 204 -129 z "},"":{"ha":694,"x_min":0,"x_max":0,"o":""},"":{"ha":683,"x_min":0,"x_max":575,"o":"m 575 69 l 533 69 l 533 1111 l 575 1111 l 575 69 m 492 69 l 383 69 l 383 1111 l 492 1111 l 492 69 m 342 69 l 300 69 l 300 1111 l 342 1111 l 342 69 m 192 69 l 83 69 l 83 1111 l 192 1111 l 192 69 m 42 69 l 0 69 l 0 1111 l 42 1111 l 42 69 m 563 -94 q 554 -135 563 -118 q 517 -178 546 -153 q 493 -203 500 -192 q 482 -240 482 -219 l 558 -243 l 558 -275 l 458 -275 l 458 -257 q 469 -194 458 -217 q 506 -147 479 -172 q 528 -124 518 -137 q 538 -96 538 -111 q 531 -71 538 -82 q 513 -60 524 -60 q 488 -67 501 -60 q 461 -85 474 -75 l 461 -49 q 507 -28 482 -28 q 563 -94 563 -28 m 226 -115 q 206 -200 226 -154 q 163 -275 194 -224 l 129 -275 q 158 -232 146 -251 q 186 -182 176 -204 l 185 -181 q 165 -187 178 -187 q 128 -165 142 -187 q 114 -110 114 -143 q 129 -50 114 -72 q 171 -28 144 -28 q 226 -115 226 -28 m 204 -108 q 171 -60 204 -60 q 136 -108 136 -60 q 171 -157 136 -157 q 194 -143 185 -157 q 204 -108 204 -129 z "},"":{"ha":683,"x_min":0,"x_max":642,"o":"m 642 69 l 600 69 l 600 1111 l 642 1111 l 642 69 m 558 69 l 450 69 l 450 1111 l 558 1111 l 558 69 m 408 69 l 367 69 l 367 1111 l 408 1111 l 408 69 m 258 69 l 150 69 l 150 1111 l 258 1111 l 258 69 m 42 69 l 0 69 l 0 1111 l 42 1111 l 42 69 m 575 -199 q 556 -255 575 -235 q 508 -275 536 -275 q 465 -261 489 -275 l 465 -226 q 508 -244 483 -244 q 539 -233 526 -244 q 551 -196 551 -221 q 540 -162 551 -174 q 513 -151 529 -151 l 493 -151 l 493 -125 l 538 -61 l 465 -61 l 465 -29 l 568 -29 l 568 -64 l 526 -125 q 575 -199 575 -125 m 226 -115 q 206 -200 226 -154 q 163 -275 194 -224 l 129 -275 q 158 -232 146 -251 q 186 -182 176 -204 l 185 -181 q 165 -187 178 -187 q 128 -165 142 -187 q 114 -110 114 -143 q 129 -50 114 -72 q 171 -28 144 -28 q 226 -115 226 -28 m 204 -108 q 171 -60 204 -60 q 136 -108 136 -60 q 171 -157 136 -157 q 194 -143 185 -157 q 204 -108 204 -129 z "},"":{"ha":683,"x_min":0,"x_max":575,"o":"m 575 69 l 533 69 l 533 1111 l 575 1111 l 575 69 m 492 69 l 383 69 l 383 1111 l 492 1111 l 492 69 m 275 69 l 233 69 l 233 1111 l 275 1111 l 275 69 m 192 69 l 83 69 l 83 1111 l 192 1111 l 192 69 m 42 69 l 0 69 l 0 1111 l 42 1111 l 42 69 m 568 -222 l 547 -222 l 547 -275 l 522 -275 l 522 -222 l 458 -222 l 458 -186 l 508 -32 l 533 -32 l 482 -192 l 522 -192 l 522 -140 l 547 -140 l 547 -192 l 568 -192 l 568 -222 m 226 -115 q 206 -200 226 -154 q 163 -275 194 -224 l 129 -275 q 158 -232 146 -251 q 186 -182 176 -204 l 185 -181 q 165 -187 178 -187 q 128 -165 142 -187 q 114 -110 114 -143 q 129 -50 114 -72 q 171 -28 144 -28 q 226 -115 226 -28 m 204 -108 q 171 -60 204 -60 q 136 -108 136 -60 q 171 -157 136 -157 q 194 -143 185 -157 q 204 -108 204 -129 z "},"":{"ha":683,"x_min":0,"x_max":642,"o":"m 642 69 l 600 69 l 600 1111 l 642 1111 l 642 69 m 558 69 l 450 69 l 450 1111 l 558 1111 l 558 69 m 342 69 l 300 69 l 300 1111 l 342 1111 l 342 69 m 258 69 l 150 69 l 150 1111 l 258 1111 l 258 69 m 42 69 l 0 69 l 0 1111 l 42 1111 l 42 69 m 561 -186 q 539 -251 561 -228 q 472 -275 517 -275 l 465 -275 l 465 -244 l 479 -244 q 520 -231 503 -244 q 538 -185 538 -217 q 524 -147 538 -157 q 494 -139 510 -137 l 465 -143 l 471 -29 l 557 -29 l 557 -61 l 492 -61 l 489 -108 l 494 -108 q 542 -127 524 -108 q 561 -186 561 -146 m 226 -115 q 206 -200 226 -154 q 163 -275 194 -224 l 129 -275 q 158 -232 146 -251 q 186 -182 176 -204 l 185 -181 q 165 -187 178 -187 q 128 -165 142 -187 q 114 -110 114 -143 q 129 -50 114 -72 q 171 -28 144 -28 q 226 -115 226 -28 m 204 -108 q 171 -60 204 -60 q 136 -108 136 -60 q 171 -157 136 -157 q 194 -143 185 -157 q 204 -108 204 -129 z "},"":{"ha":683,"x_min":0,"x_max":642,"o":"m 642 69 l 600 69 l 600 1111 l 642 1111 l 642 69 m 558 69 l 450 69 l 450 1111 l 558 1111 l 558 69 m 342 69 l 300 69 l 300 1111 l 342 1111 l 342 69 m 192 69 l 83 69 l 83 1111 l 192 1111 l 192 69 m 42 69 l 0 69 l 0 1111 l 42 1111 l 42 69 m 568 -196 q 553 -254 568 -233 q 513 -275 538 -275 q 457 -193 457 -275 q 461 -144 457 -165 q 478 -101 465 -122 l 521 -29 l 551 -29 q 535 -56 540 -47 q 507 -101 514 -89 l 494 -122 q 517 -117 504 -117 q 553 -140 539 -117 q 568 -196 568 -162 m 226 -115 q 206 -200 226 -154 q 163 -275 194 -224 l 129 -275 q 158 -232 146 -251 q 186 -182 176 -204 l 185 -181 q 165 -187 178 -187 q 128 -165 142 -187 q 114 -110 114 -143 q 129 -50 114 -72 q 171 -28 144 -28 q 226 -115 226 -28 m 544 -196 q 513 -147 544 -147 q 493 -154 500 -147 q 479 -194 479 -167 q 513 -244 479 -244 q 544 -196 544 -244 m 204 -108 q 171 -60 204 -60 q 136 -108 136 -60 q 171 -157 136 -157 q 194 -143 185 -157 q 204 -108 204 -129 z "},"":{"ha":683,"x_min":0,"x_max":575,"o":"m 575 69 l 533 69 l 533 1111 l 575 1111 l 575 69 m 425 69 l 317 69 l 317 1111 l 425 1111 l 425 69 m 275 69 l 233 69 l 233 1111 l 275 1111 l 275 69 m 192 69 l 83 69 l 83 1111 l 192 1111 l 192 69 m 42 69 l 0 69 l 0 1111 l 42 1111 l 42 69 m 561 -74 q 553 -93 558 -83 q 543 -108 549 -103 q 521 -151 531 -131 q 503 -236 503 -190 l 503 -275 l 478 -275 l 478 -236 q 488 -167 478 -197 q 519 -101 499 -136 l 528 -87 q 536 -64 536 -76 l 454 -64 l 454 -32 l 565 -32 q 561 -74 565 -61 m 226 -115 q 206 -200 226 -154 q 163 -275 194 -224 l 129 -275 q 158 -232 146 -251 q 186 -182 176 -204 l 185 -181 q 165 -187 178 -187 q 128 -165 142 -187 q 114 -110 114 -143 q 129 -50 114 -72 q 171 -28 144 -28 q 226 -115 226 -28 m 204 -108 q 171 -60 204 -60 q 136 -108 136 -60 q 171 -157 136 -157 q 194 -143 185 -157 q 204 -108 204 -129 z "},"":{"ha":683,"x_min":0,"x_max":642,"o":"m 642 69 l 600 69 l 600 1111 l 642 1111 l 642 69 m 492 69 l 383 69 l 383 1111 l 492 1111 l 492 69 m 342 69 l 300 69 l 300 1111 l 342 1111 l 342 69 m 258 69 l 150 69 l 150 1111 l 258 1111 l 258 69 m 42 69 l 0 69 l 0 1111 l 42 1111 l 42 69 m 569 -210 q 553 -260 569 -243 q 513 -276 538 -276 q 472 -261 488 -276 q 457 -210 457 -246 q 492 -137 457 -162 q 472 -115 476 -122 q 464 -81 464 -101 q 478 -40 464 -53 q 513 -26 492 -26 q 549 -40 533 -26 q 564 -81 564 -54 q 558 -110 564 -100 q 535 -137 551 -121 q 560 -167 551 -150 q 569 -210 569 -183 m 226 -115 q 206 -200 226 -154 q 163 -275 194 -224 l 129 -275 q 158 -232 146 -251 q 186 -182 176 -204 l 185 -181 q 165 -187 178 -187 q 128 -165 142 -187 q 114 -110 114 -143 q 129 -50 114 -72 q 171 -28 144 -28 q 226 -115 226 -28 m 540 -83 q 535 -66 540 -72 q 513 -60 531 -60 q 488 -83 488 -60 q 494 -106 488 -96 q 513 -122 501 -115 q 533 -106 525 -114 q 540 -83 540 -97 m 547 -207 q 538 -179 547 -190 q 513 -157 529 -168 q 490 -175 496 -168 q 481 -207 481 -187 q 490 -237 481 -226 q 513 -247 499 -247 q 537 -237 526 -247 q 547 -207 547 -226 m 204 -108 q 171 -60 204 -60 q 136 -108 136 -60 q 171 -157 136 -157 q 194 -143 185 -157 q 204 -108 204 -129 z "},"":{"ha":683,"x_min":0,"x_max":642,"o":"m 642 69 l 600 69 l 600 1111 l 642 1111 l 642 69 m 492 69 l 383 69 l 383 1111 l 492 1111 l 492 69 m 342 69 l 300 69 l 300 1111 l 342 1111 l 342 69 m 192 69 l 83 69 l 83 1111 l 192 1111 l 192 69 m 42 69 l 0 69 l 0 1111 l 42 1111 l 42 69 m 568 -115 q 546 -200 568 -154 q 501 -275 533 -226 l 471 -275 q 500 -232 490 -247 q 526 -182 517 -207 l 526 -181 q 506 -187 517 -187 q 468 -165 483 -187 q 453 -110 453 -143 q 469 -50 453 -72 q 513 -28 486 -28 q 553 -51 538 -28 q 568 -115 568 -75 m 226 -115 q 206 -200 226 -154 q 163 -275 194 -224 l 129 -275 q 158 -232 146 -251 q 186 -182 176 -204 l 185 -181 q 165 -187 178 -187 q 128 -165 142 -187 q 114 -110 114 -143 q 129 -50 114 -72 q 171 -28 144 -28 q 226 -115 226 -28 m 543 -108 q 513 -60 543 -60 q 478 -108 478 -60 q 513 -157 478 -157 q 535 -144 526 -157 q 543 -108 543 -131 m 204 -108 q 171 -60 204 -60 q 136 -108 136 -60 q 171 -157 136 -157 q 194 -143 185 -157 q 204 -108 204 -129 z "}}}
